<?xml version="1.0" encoding="UTF-8"?>
<svg width="13px" height="15px" viewBox="0 0 13 15" version="1.1" xmlns="http://www.w3.org/2000/svg" xmlns:xlink="http://www.w3.org/1999/xlink">
    <!-- Generator: Sketch 57.1 (83088) - https://sketch.com -->
    <title>Rectangle</title>
    <desc>Created with Sketch.</desc>
    <g id="Symbols" stroke="none" stroke-width="1" fill="none" fill-rule="evenodd">
        <g id="Sound" transform="translate(-13.000000, -67.000000)" fill="#50E3C2">
            <g id="Play-button">
                <g transform="translate(0.000000, 57.000000)">
                    <g id="Group-6">
                        <path d="M14.4626795,16.5614804 L18.9468263,12.1706712 C19.3414359,11.7842754 19.9745658,11.790934 20.3609616,12.1855436 C20.4993273,12.3268505 20.5926862,12.5060122 20.6292339,12.7003752 L22.679131,23.6018464 C22.7811931,24.1446187 22.4239269,24.6673603 21.8811546,24.7694225 C21.7528616,24.7935465 21.6210864,24.7923181 21.4932654,24.7658065 L10.7662988,22.5409064 C10.2255235,22.4287433 9.87806479,21.8994321 9.99022799,21.3586568 C10.0290739,21.1713679 10.1208187,20.9991487 10.2545816,20.862424 L14.4475044,16.576662 C14.4525083,16.5715473 14.457567,16.5664865 14.4626795,16.5614804 Z" id="Rectangle" transform="translate(15.965399, 17.965399) rotate(-45.000000) translate(-15.965399, -17.965399) "></path>
                    </g>
                </g>
            </g>
        </g>
    </g>
</svg>