<?xml version="1.0" encoding="UTF-8"?>
<svg width="534px" height="533px" viewBox="0 0 534 533" version="1.1" xmlns="http://www.w3.org/2000/svg" xmlns:xlink="http://www.w3.org/1999/xlink">
    <!-- Generator: Sketch 53.2 (72643) - https://sketchapp.com -->
    <title>404</title>
    <desc>Created with Sketch.</desc>
    <defs>
        <ellipse id="path-1" cx="264.510638" cy="264.5" rx="264.510638" ry="264.5"></ellipse>
        <path d="M63.896933,8.6548516 L87.97985,0.11125025 L103.734649,140.764683 C106.925352,169.250185 102.21223,214.399281 93.208949,241.60392 L22.633205,454.85815 L0.9375273,446.570201 L68.878597,235.085795 C77.156111,209.319861 81.445152,166.635166 78.455764,139.722784 L63.896933,8.6548516 Z" id="path-3"></path>
        <path d="M6.6941468,3.12864 C6.8801662,1.479241 8.3800456,0.163575 10.0397971,0.18995 L32.3883996,0.545078 C34.0501318,0.571483 35.3578766,1.937208 35.3093033,3.5964 L35.0262033,13.266676 L53.5908236,16.94735 C55.217763,17.269912 56.5328478,18.871017 56.4586058,20.520915 C56.4586058,20.520915 56.7365454,25.256538 54.6541937,25.890386 C52.5718421,26.524234 35.3729393,26.093181 35.3729393,26.093181 L36.1807423,58.421491 C36.2220951,60.076433 34.9094553,61.378702 33.2622087,61.330579 L3.2323425,60.453283 C1.5791281,60.404985 0.3903172,59.023537 0.5757509,57.37933 L6.6941468,3.12864 Z" id="path-5"></path>
        <rect id="path-7" x="0.827503" y="0.3711587" width="62" height="25" rx="10"></rect>
    </defs>
    <g id="Profile-V2" stroke="none" stroke-width="1" fill="none" fill-rule="evenodd">
        <g id="Desktop-HD" transform="translate(-660.000000, -348.000000)">
            <g id="404" transform="translate(662.000000, 350.000000)">
                <g id="record">
                    <g id="record-bg">
                        <g id="outer-circle" fill="#F3F6F7" fill-rule="nonzero" stroke="#E9ECF0" stroke-width="2.7">
                            <ellipse id="path-1" cx="264.510638" cy="264.5" rx="264.510638" ry="264.5"></ellipse>
                        </g>
                        <g id="diagonal-hash-Clipped">
                            <mask id="mask-2" fill="white">
                                <use xlink:href="#path-1"></use>
                            </mask>
                            <g id="path-1"></g>
                            <g id="diagonal-hash" opacity="0.333022388" style="mix-blend-mode: darken;" mask="url(#mask-2)" fill-opacity="0.529802229">
                                <g transform="translate(-9.000000, -5.000000)" id="Group">
                                    <g transform="translate(0.902736, 0.501701)">
                                        <polygon id="Fill-1" fill="#98A4B3" fill-rule="nonzero" points="337.369284 542.494898 341.185795 542.494898 540.771667 342.917053 540.771667 339.100696"></polygon>
                                        <polygon id="Fill-3" fill="#98A4B3" fill-rule="nonzero" points="518.061359 542.494898 521.87787 542.494898 540.771487 523.602041 540.771487 519.785684"></polygon>
                                        <polygon id="Fill-4" fill="#98A4B3" fill-rule="nonzero" points="497.36799 542.494898 501.185401 542.494898 540.772027 502.909864 540.772027 499.093507"></polygon>
                                        <polygon id="Fill-5" fill="#98A4B3" fill-rule="nonzero" points="476.675431 542.494898 480.491942 542.494898 540.771577 482.217687 540.771577 478.40133"></polygon>
                                        <polygon id="Fill-6" fill="#98A4B3" fill-rule="nonzero" points="456.278422 542.494898 460.094933 542.494898 540.771577 461.821498 540.771577 458.005141"></polygon>
                                        <polygon id="Fill-7" fill="#98A4B3" fill-rule="nonzero" points="436.261984 542.494898 440.078495 542.494898 540.771577 441.804966 540.771577 437.989509"></polygon>
                                        <polygon id="Fill-8" fill="#98A4B3" fill-rule="nonzero" points="416.539477 542.494898 420.355988 542.494898 540.771307 422.084422 540.771307 418.268065"></polygon>
                                        <polygon id="Fill-9" fill="#98A4B3" fill-rule="nonzero" points="396.81616 542.494898 400.633571 542.494898 540.772027 402.362078 540.772027 398.545721"></polygon>
                                        <polygon id="Fill-10" fill="#98A4B3" fill-rule="nonzero" points="377.853177 542.494898 381.670587 542.494898 540.771937 383.399947 540.771937 379.58269"></polygon>
                                        <polygon id="Fill-11" fill="#98A4B3" fill-rule="nonzero" points="357.540379 542.494898 361.35689 542.494898 540.771577 363.087427 540.771577 359.27107"></polygon>
                                        <polygon id="Fill-12" fill="#98A4B3" fill-rule="nonzero" points="200.615395 541.649578 204.431905 541.649578 540.771577 205.323433 540.771577 201.507076"></polygon>
                                        <polygon id="Fill-13" fill="#98A4B3" fill-rule="nonzero" points="319.524533 541.649578 323.341943 541.649578 540.771487 324.227879 540.771487 320.411521"></polygon>
                                        <polygon id="Fill-14" fill="#98A4B3" fill-rule="nonzero" points="299.508095 541.649578 303.324605 541.649578 540.771487 304.211346 540.771487 300.395889"></polygon>
                                        <polygon id="Fill-15" fill="#98A4B3" fill-rule="nonzero" points="279.785588 541.649578 283.602098 541.649578 540.772117 284.490802 540.772117 280.673545"></polygon>
                                        <polygon id="Fill-16" fill="#98A4B3" fill-rule="nonzero" points="260.063081 541.649578 263.879591 541.649578 540.771847 264.768459 540.771847 260.951202"></polygon>
                                        <polygon id="Fill-17" fill="#98A4B3" fill-rule="nonzero" points="241.100097 541.649578 244.916608 541.649578 540.771757 245.806328 540.771757 241.989071"></polygon>
                                        <polygon id="Fill-18" fill="#98A4B3" fill-rule="nonzero" points="220.78649 541.649578 224.603001 541.649578 540.771487 225.493807 540.771487 221.67745"></polygon>
                                        <polygon id="Fill-19" fill="#98A4B3" fill-rule="nonzero" points="139.83004 541.649578 143.64745 541.649578 540.771487 144.540613 540.771487 140.724256"></polygon>
                                        <polygon id="Fill-20" fill="#98A4B3" fill-rule="nonzero" points="180.313933 541.649578 184.131343 541.649578 540.771757 185.023508 540.771757 181.207151"></polygon>
                                        <polygon id="Fill-21" fill="#98A4B3" fill-rule="nonzero" points="160.001945 541.649578 163.818456 541.649578 540.771307 164.710987 540.771307 160.89553"></polygon>
                                        <polygon id="Fill-22" fill="#98A4B3" fill-rule="nonzero" points="3.07696049 541.649578 6.89347112 541.649578 540.772207 7.79231395 540.772207 3.9759568"></polygon>
                                        <polygon id="Fill-23" fill="#98A4B3" fill-rule="nonzero" points="121.986098 541.649578 125.802609 541.649578 540.772117 126.69676 540.772117 122.880402"></polygon>
                                        <polygon id="Fill-24" fill="#98A4B3" fill-rule="nonzero" points="101.968851 541.649578 105.786261 541.649578 540.771307 106.681127 540.771307 102.86477"></polygon>
                                        <polygon id="Fill-25" fill="#98A4B3" fill-rule="nonzero" points="82.2463441 541.649578 86.0628547 541.649578 540.771937 86.959683 540.771937 83.1433259"></polygon>
                                        <polygon id="Fill-26" fill="#98A4B3" fill-rule="nonzero" points="62.5230274 541.649578 66.3404377 541.649578 540.771757 67.2382391 540.771757 63.4209823"></polygon>
                                        <polygon id="Fill-27" fill="#98A4B3" fill-rule="nonzero" points="43.5600438 541.649578 47.3774541 541.649578 540.771667 48.2752085 540.771667 44.4588514"></polygon>
                                        <polygon id="Fill-28" fill="#98A4B3" fill-rule="nonzero" points="23.2480559 541.649578 27.0645666 541.649578 540.772117 27.9626881 540.772117 24.146331"></polygon>
                                        <polygon id="Fill-29" fill="#98A4B3" fill-rule="nonzero" points="323.927915 1.79931973 0.899246201 324.814997 0.899246201 328.631354 327.744426 1.79931973"></polygon>
                                        <polygon id="Fill-30" fill="#98A4B3" fill-rule="nonzero" points="523.513697 1.79931973 0.900055927 524.391942 0.900055927 528.209199 527.330208 1.79931973"></polygon>
                                        <polygon id="Fill-31" fill="#98A4B3" fill-rule="nonzero" points="504.62008 1.79931973 0.900055927 505.499085 0.900055927 509.316342 508.436591 1.79931973"></polygon>
                                        <polygon id="Fill-32" fill="#98A4B3" fill-rule="nonzero" points="483.927071 1.79931973 0.900055927 484.806908 0.900055927 488.624165 487.743582 1.79931973"></polygon>
                                        <polygon id="Fill-33" fill="#98A4B3" fill-rule="nonzero" points="463.234062 1.79931973 0.900055927 464.114731 0.900055927 467.931988 467.050573 1.79931973"></polygon>
                                        <polygon id="Fill-34" fill="#98A4B3" fill-rule="nonzero" points="442.837143 1.79931973 0.899246201 443.719442 0.899246201 447.535799 446.653653 1.79931973"></polygon>
                                        <polygon id="Fill-35" fill="#98A4B3" fill-rule="nonzero" points="422.820615 1.79931973 0.900055927 423.70291 0.900055927 427.519267 426.637126 1.79931973"></polygon>
                                        <polygon id="Fill-36" fill="#98A4B3" fill-rule="nonzero" points="403.098108 1.79931973 0.899786018 403.981466 0.899786018 407.797823 406.914619 1.79931973"></polygon>
                                        <polygon id="Fill-37" fill="#98A4B3" fill-rule="nonzero" points="383.375151 1.79931973 0.899965957 384.260022 0.899965957 388.076379 387.191662 1.79931973"></polygon>
                                        <polygon id="Fill-38" fill="#98A4B3" fill-rule="nonzero" points="364.412078 1.79931973 0.899786018 365.296991 0.899786018 369.114248 368.228588 1.79931973"></polygon>
                                        <polygon id="Fill-39" fill="#98A4B3" fill-rule="nonzero" points="344.09901 1.79931973 0.900055927 344.984471 0.900055927 348.801728 347.915521 1.79931973"></polygon>
                                        <polygon id="Fill-40" fill="#98A4B3" fill-rule="nonzero" points="187.174116 1.79931973 0.899246201 188.066697 0.899246201 191.883054 190.990626 1.79931973"></polygon>
                                        <polygon id="Fill-41" fill="#98A4B3" fill-rule="nonzero" points="306.083343 1.79931973 0.899246201 306.971143 0.899246201 310.7875 309.899854 1.79931973"></polygon>
                                        <polygon id="Fill-42" fill="#98A4B3" fill-rule="nonzero" points="286.066816 1.79931973 0.900055927 286.954611 0.900055927 290.770968 289.883326 1.79931973"></polygon>
                                        <polygon id="Fill-43" fill="#98A4B3" fill-rule="nonzero" points="266.344309 1.79931973 0.899786018 267.233167 0.899786018 271.049524 270.160819 1.79931973"></polygon>
                                        <polygon id="Fill-44" fill="#98A4B3" fill-rule="nonzero" points="246.621442 1.79931973 0.900055927 247.511723 0.900055927 251.32808 250.437953 1.79931973"></polygon>
                                        <polygon id="Fill-45" fill="#98A4B3" fill-rule="nonzero" points="227.658368 1.79931973 0.899875988 228.548692 0.899875988 232.365949 231.474879 1.79931973"></polygon>
                                        <polygon id="Fill-46" fill="#98A4B3" fill-rule="nonzero" points="207.345211 1.79931973 0.900055927 208.236172 0.900055927 212.053429 211.161722 1.79931973"></polygon>
                                        <polygon id="Fill-47" fill="#98A4B3" fill-rule="nonzero" points="125.488975 0.899569898 0.000269908815 126.384128 0.000269908815 130.200485 129.306385 0.899569898"></polygon>
                                        <polygon id="Fill-48" fill="#98A4B3" fill-rule="nonzero" points="165.973678 0.899569898 0.000449848024 166.866123 0.000449848024 170.68248 169.790188 0.899569898"></polygon>
                                        <polygon id="Fill-49" fill="#98A4B3" fill-rule="nonzero" points="145.66088 0.899569898 8.99696049e-05 146.554502 8.99696049e-05 150.370859 149.477391 0.899569898"></polygon>
                                        <polygon id="Fill-50" fill="#98A4B3" fill-rule="nonzero" points="107.645033 0 0 107.640704 0 111.457961 111.462444 0"></polygon>
                                        <polygon id="Fill-51" fill="#98A4B3" fill-rule="nonzero" points="87.6285957 0 0 87.6250714 0 91.4414286 91.4451064 0"></polygon>
                                        <polygon id="Fill-52" fill="#98A4B3" fill-rule="nonzero" points="67.905279 0 -0.00017993921 67.9027279 -0.00017993921 71.719085 71.7226894 0"></polygon>
                                        <polygon id="Fill-53" fill="#98A4B3" fill-rule="nonzero" points="48.182772 0 -0.000449848024 48.181284 -0.000449848024 51.9967415 51.9992827 0"></polygon>
                                        <polygon id="Fill-54" fill="#98A4B3" fill-rule="nonzero" points="29.2197884 0 0.000359878419 29.2182534 0.000359878419 33.0346105 33.0362991 0"></polygon>
                                        <polygon id="Fill-55" fill="#98A4B3" fill-rule="nonzero" points="8.90699088 3.59827959 0 12.5049122 0 16.322169 12.7235015 3.59827959"></polygon>
                                    </g>
                                </g>
                            </g>
                        </g>
                    </g>
                    <ellipse id="middle-circle" stroke-opacity="0.425972465" stroke="#98A4B3" stroke-width="2.7" fill="#EFF2F5" fill-rule="nonzero" cx="264.85201" cy="264.841358" rx="97.5085445" ry="97.5046228"></ellipse>
                    <ellipse id="inner-circle" stroke="#98A4B3" stroke-width="2.7" fill="#98A4B3" fill-rule="nonzero" cx="264.641943" cy="264.631299" rx="8.22856915" ry="8.22823821"></ellipse>
                </g>
                <g id="record-arm" transform="translate(265.000000, 0.000000)">
                    <g id="Rectangle" transform="translate(145.511673, 233.395699) rotate(18.000000) translate(-145.511673, -233.395699) translate(93.011673, 5.895699)">
                        <g id="path-1-Clipped">
                            <mask id="mask-4" fill="white">
                                <use xlink:href="#path-3"></use>
                            </mask>
                            <g id="path-1"></g>
                            <path d="M63.896933,8.6548516 L87.97985,0.11125025 L103.734649,140.764683 C106.925352,169.250185 102.21223,214.399281 93.208949,241.60392 L22.633205,454.85815 L0.9375273,446.570201 L68.878597,235.085795 C77.156111,209.319861 81.445152,166.635166 78.455764,139.722784 L63.896933,8.6548516 Z" id="path-1" stroke="#B9C1CB" stroke-width="6" fill="#F6F8F9" fill-rule="nonzero" mask="url(#mask-4)"></path>
                        </g>
                    </g>
                    <g id="Rectangle-6" transform="translate(42.358778, 438.943500) rotate(37.000000) translate(-42.358778, -438.943500) translate(13.858778, 407.943500)">
                        <g id="path-3-Clipped">
                            <mask id="mask-6" fill="white">
                                <use xlink:href="#path-5"></use>
                            </mask>
                            <g id="path-3"></g>
                            <path d="M6.6941468,3.12864 C6.8801662,1.479241 8.3800456,0.163575 10.0397971,0.18995 L32.3883996,0.545078 C34.0501318,0.571483 35.3578766,1.937208 35.3093033,3.5964 L35.0262033,13.266676 L53.5908236,16.94735 C55.217763,17.269912 56.5328478,18.871017 56.4586058,20.520915 C56.4586058,20.520915 56.7365454,25.256538 54.6541937,25.890386 C52.5718421,26.524234 35.3729393,26.093181 35.3729393,26.093181 L36.1807423,58.421491 C36.2220951,60.076433 34.9094553,61.378702 33.2622087,61.330579 L3.2323425,60.453283 C1.5791281,60.404985 0.3903172,59.023537 0.5757509,57.37933 L6.6941468,3.12864 Z" id="path-3" stroke="#98A4B3" stroke-width="6" fill="#98A4B3" fill-rule="nonzero" mask="url(#mask-6)"></path>
                        </g>
                    </g>
                    <g id="Rectangle-3" transform="translate(235.482603, 30.941172) rotate(10.000000) translate(-235.482603, -30.941172) translate(203.982603, 17.941172)">
                        <g id="path-5-Clipped">
                            <mask id="mask-8" fill="white">
                                <use xlink:href="#path-7"></use>
                            </mask>
                            <g id="path-5"></g>
                            <rect id="path-5" stroke="#B9C1CB" stroke-width="6" fill="#F6F8F9" fill-rule="nonzero" mask="url(#mask-8)" x="0.827503" y="0.3711587" width="62" height="25" rx="10"></rect>
                        </g>
                    </g>
                </g>
                <path d="M208.522868,219.585368 L203.617868,219.585368 L203.617868,217.995368 L208.132868,211.170368 L210.292868,211.170368 L210.292868,218.040368 L211.777868,218.040368 L211.777868,219.585368 L210.292868,219.585368 L210.292868,221.790368 L208.522868,221.790368 L208.522868,219.585368 Z M208.522868,213.285368 L208.492868,213.285368 L205.477868,218.040368 L208.522868,218.040368 L208.522868,213.285368 Z M220.777868,216.480368 C220.777868,217.340372 220.695369,218.115364 220.530368,218.805368 C220.365367,219.495371 220.125369,220.080366 219.810368,220.560368 C219.495366,221.04037 219.10537,221.410367 218.640368,221.670368 C218.175366,221.930369 217.642871,222.060368 217.042868,222.060368 C216.442865,222.060368 215.90787,221.930369 215.437868,221.670368 C214.967866,221.410367 214.57287,221.04037 214.252868,220.560368 C213.932866,220.080366 213.690369,219.495371 213.525368,218.805368 C213.360367,218.115364 213.277868,217.340372 213.277868,216.480368 C213.277868,215.620364 213.360367,214.845371 213.525368,214.155368 C213.690369,213.465364 213.932866,212.88037 214.252868,212.400368 C214.57287,211.920366 214.967866,211.550369 215.437868,211.290368 C215.90787,211.030367 216.442865,210.900368 217.042868,210.900368 C217.642871,210.900368 218.175366,211.030367 218.640368,211.290368 C219.10537,211.550369 219.495366,211.920366 219.810368,212.400368 C220.125369,212.88037 220.365367,213.465364 220.530368,214.155368 C220.695369,214.845371 220.777868,215.620364 220.777868,216.480368 Z M218.932868,216.480368 C218.932868,216.110366 218.910368,215.69037 218.865368,215.220368 C218.820368,214.750366 218.730369,214.30537 218.595368,213.885368 C218.460367,213.465366 218.267869,213.112869 218.017868,212.827868 C217.767867,212.542866 217.44287,212.400368 217.042868,212.400368 C216.632866,212.400368 216.302869,212.542866 216.052868,212.827868 C215.802867,213.112869 215.610369,213.465366 215.475368,213.885368 C215.340367,214.30537 215.247868,214.750366 215.197868,215.220368 C215.147868,215.69037 215.122868,216.110366 215.122868,216.480368 C215.122868,216.85037 215.147868,217.270366 215.197868,217.740368 C215.247868,218.21037 215.340367,218.650366 215.475368,219.060368 C215.610369,219.47037 215.802867,219.817866 216.052868,220.102868 C216.302869,220.387869 216.632866,220.530368 217.042868,220.530368 C217.44287,220.530368 217.767867,220.387869 218.017868,220.102868 C218.267869,219.817866 218.460367,219.47037 218.595368,219.060368 C218.730369,218.650366 218.820368,218.21037 218.865368,217.740368 C218.910368,217.270366 218.932868,216.85037 218.932868,216.480368 Z M226.822868,219.585368 L221.917868,219.585368 L221.917868,217.995368 L226.432868,211.170368 L228.592868,211.170368 L228.592868,218.040368 L230.077868,218.040368 L230.077868,219.585368 L228.592868,219.585368 L228.592868,221.790368 L226.822868,221.790368 L226.822868,219.585368 Z M226.822868,213.285368 L226.792868,213.285368 L223.777868,218.040368 L226.822868,218.040368 L226.822868,213.285368 Z M235.777868,216.510368 C235.617867,216.300367 235.397869,216.117869 235.117868,215.962868 C234.837867,215.807867 234.53287,215.730368 234.202868,215.730368 C233.912866,215.730368 233.647869,215.790367 233.407868,215.910368 C233.167867,216.030369 233.047868,216.230367 233.047868,216.510368 C233.047868,216.790369 233.180367,216.987867 233.445368,217.102868 C233.710369,217.217868 234.097865,217.335367 234.607868,217.455368 C234.877869,217.515368 235.150367,217.595367 235.425368,217.695368 C235.700369,217.795368 235.950367,217.927867 236.175368,218.092868 C236.400369,218.257869 236.582867,218.462867 236.722868,218.707868 C236.862869,218.952869 236.932868,219.250366 236.932868,219.600368 C236.932868,220.04037 236.850369,220.412866 236.685368,220.717868 C236.520367,221.022869 236.300369,221.270367 236.025368,221.460368 C235.750367,221.650369 235.43037,221.787867 235.065368,221.872868 C234.700366,221.957868 234.32287,222.000368 233.932868,222.000368 C233.372865,222.000368 232.827871,221.897869 232.297868,221.692868 C231.767865,221.487867 231.32787,221.19537 230.977868,220.815368 L232.162868,219.705368 C232.362869,219.965369 232.622866,220.180367 232.942868,220.350368 C233.26287,220.520369 233.617866,220.605368 234.007868,220.605368 C234.137869,220.605368 234.270367,220.590368 234.405368,220.560368 C234.540369,220.530368 234.665367,220.482868 234.780368,220.417868 C234.895368,220.352868 234.987868,220.265368 235.057868,220.155368 C235.127868,220.045367 235.162868,219.910369 235.162868,219.750368 C235.162868,219.450366 235.025369,219.235369 234.750368,219.105368 C234.475367,218.975367 234.062871,218.845369 233.512868,218.715368 C233.242867,218.655368 232.980369,218.577868 232.725368,218.482868 C232.470367,218.387867 232.242869,218.262869 232.042868,218.107868 C231.842867,217.952867 231.682869,217.760369 231.562868,217.530368 C231.442867,217.300367 231.382868,217.01537 231.382868,216.675368 C231.382868,216.275366 231.465367,215.930369 231.630368,215.640368 C231.795369,215.350366 232.012867,215.112869 232.282868,214.927868 C232.552869,214.742867 232.857866,214.605368 233.197868,214.515368 C233.53787,214.425367 233.887866,214.380368 234.247868,214.380368 C234.767871,214.380368 235.275365,214.470367 235.770368,214.650368 C236.26537,214.830369 236.657866,215.105366 236.947868,215.475368 L235.777868,216.510368 Z M249.712868,219.255368 L252.187868,221.790368 L249.787868,221.790368 L248.617868,220.575368 C248.267866,220.98537 247.84287,221.325367 247.342868,221.595368 C246.842865,221.865369 246.207872,222.000368 245.437868,222.000368 C244.967866,222.000368 244.51787,221.935369 244.087868,221.805368 C243.657866,221.675367 243.28037,221.480369 242.955368,221.220368 C242.630366,220.960367 242.370369,220.63787 242.175368,220.252868 C241.980367,219.867866 241.882868,219.42037 241.882868,218.910368 C241.882868,218.520366 241.947867,218.167869 242.077868,217.852868 C242.207869,217.537866 242.380367,217.255369 242.595368,217.005368 C242.810369,216.755367 243.055367,216.540369 243.330368,216.360368 C243.605369,216.180367 243.892866,216.025369 244.192868,215.895368 C243.842866,215.535366 243.565369,215.16287 243.360368,214.777868 C243.155367,214.392866 243.052868,213.97037 243.052868,213.510368 C243.052868,213.060366 243.140367,212.67037 243.315368,212.340368 C243.490369,212.010366 243.720366,211.737869 244.005368,211.522868 C244.290369,211.307867 244.610366,211.150368 244.965368,211.050368 C245.32037,210.950367 245.682866,210.900368 246.052868,210.900368 C246.43287,210.900368 246.800366,210.952867 247.155368,211.057868 C247.51037,211.162868 247.822867,211.322867 248.092868,211.537868 C248.362869,211.752869 248.580367,212.022866 248.745368,212.347868 C248.910369,212.67287 248.992868,213.050366 248.992868,213.480368 C248.992868,213.82037 248.935368,214.132866 248.820368,214.417868 C248.705367,214.702869 248.550369,214.962867 248.355368,215.197868 C248.160367,215.432869 247.930369,215.640367 247.665368,215.820368 C247.400367,216.000369 247.117869,216.160367 246.817868,216.300368 L248.557868,218.115368 L249.787868,216.180368 L251.842868,216.180368 L249.712868,219.255368 Z M246.082868,212.355368 C245.732866,212.355368 245.437869,212.465367 245.197868,212.685368 C244.957867,212.905369 244.837868,213.190366 244.837868,213.540368 C244.837868,213.840369 244.920367,214.130367 245.085368,214.410368 C245.250369,214.690369 245.482866,214.965367 245.782868,215.235368 C245.992869,215.145367 246.190367,215.045368 246.375368,214.935368 C246.560369,214.825367 246.722867,214.700369 246.862868,214.560368 C247.002869,214.420367 247.112868,214.265369 247.192868,214.095368 C247.272868,213.925367 247.312868,213.740369 247.312868,213.540368 C247.312868,213.220366 247.197869,212.942869 246.967868,212.707868 C246.737867,212.472867 246.44287,212.355368 246.082868,212.355368 Z M245.212868,217.050368 C245.012867,217.120368 244.825369,217.205367 244.650368,217.305368 C244.475367,217.405368 244.320369,217.525367 244.185368,217.665368 C244.050367,217.805369 243.942868,217.972867 243.862868,218.167868 C243.782868,218.362869 243.742868,218.585367 243.742868,218.835368 C243.742868,219.095369 243.795367,219.330367 243.900368,219.540368 C244.005368,219.750369 244.142867,219.925367 244.312868,220.065368 C244.482869,220.205369 244.672867,220.312868 244.882868,220.387868 C245.092869,220.462868 245.297867,220.500368 245.497868,220.500368 C245.93787,220.500368 246.312866,220.405369 246.622868,220.215368 C246.932869,220.025367 247.217867,219.75537 247.477868,219.405368 L245.212868,217.050368 Z M190.027868,231.170368 L191.917868,231.170368 L191.917868,235.460368 L196.882868,235.460368 L196.882868,231.170368 L198.772868,231.170368 L198.772868,241.790368 L196.882868,241.790368 L196.882868,237.080368 L191.917868,237.080368 L191.917868,241.790368 L190.027868,241.790368 L190.027868,231.170368 Z M206.092868,237.470368 C206.092868,237.240367 206.060368,237.020369 205.995368,236.810368 C205.930368,236.600367 205.827869,236.415369 205.687868,236.255368 C205.547867,236.095367 205.370369,235.967868 205.155368,235.872868 C204.940367,235.777867 204.687869,235.730368 204.397868,235.730368 C203.857865,235.730368 203.40037,235.892866 203.025368,236.217868 C202.650366,236.54287 202.442868,236.960365 202.402868,237.470368 L206.092868,237.470368 Z M207.892868,238.280368 L207.892868,238.520368 C207.892868,238.600368 207.887868,238.680368 207.877868,238.760368 L202.402868,238.760368 C202.422868,239.020369 202.490367,239.257867 202.605368,239.472868 C202.720368,239.687869 202.872867,239.872867 203.062868,240.027868 C203.252869,240.182869 203.467867,240.305367 203.707868,240.395368 C203.947869,240.485368 204.197867,240.530368 204.457868,240.530368 C204.90787,240.530368 205.287866,240.447869 205.597868,240.282868 C205.907869,240.117867 206.162867,239.890369 206.362868,239.600368 L207.562868,240.560368 C206.852864,241.520373 205.822875,242.000368 204.472868,242.000368 C203.912865,242.000368 203.39787,241.912869 202.927868,241.737868 C202.457866,241.562867 202.05037,241.31537 201.705368,240.995368 C201.360366,240.675366 201.090369,240.28287 200.895368,239.817868 C200.700367,239.352866 200.602868,238.825371 200.602868,238.235368 C200.602868,237.655365 200.700367,237.12787 200.895368,236.652868 C201.090369,236.177866 201.357866,235.77287 201.697868,235.437868 C202.03787,235.102866 202.440366,234.842869 202.905368,234.657868 C203.37037,234.472867 203.872865,234.380368 204.412868,234.380368 C204.91287,234.380368 205.375366,234.462867 205.800368,234.627868 C206.22537,234.792869 206.592866,235.037866 206.902868,235.362868 C207.212869,235.68787 207.455367,236.092865 207.630368,236.577868 C207.805369,237.06287 207.892868,237.630365 207.892868,238.280368 Z M214.012868,240.875368 L213.967868,240.875368 C213.787867,241.19537 213.49787,241.457867 213.097868,241.662868 C212.697866,241.867869 212.24287,241.970368 211.732868,241.970368 C211.442866,241.970368 211.140369,241.932868 210.825368,241.857868 C210.510366,241.782868 210.220369,241.657869 209.955368,241.482868 C209.690367,241.307867 209.470369,241.077869 209.295368,240.792868 C209.120367,240.507866 209.032868,240.15537 209.032868,239.735368 C209.032868,239.195365 209.185366,238.76537 209.490368,238.445368 C209.795369,238.125366 210.187866,237.880369 210.667868,237.710368 C211.14787,237.540367 211.680365,237.427868 212.265368,237.372868 C212.850371,237.317868 213.422865,237.290368 213.982868,237.290368 L213.982868,237.110368 C213.982868,236.660366 213.82037,236.327869 213.495368,236.112868 C213.170366,235.897867 212.78287,235.790368 212.332868,235.790368 C211.952866,235.790368 211.58787,235.870367 211.237868,236.030368 C210.887866,236.190369 210.597869,236.385367 210.367868,236.615368 L209.437868,235.520368 C209.84787,235.140366 210.320365,234.855369 210.855368,234.665368 C211.390371,234.475367 211.932865,234.380368 212.482868,234.380368 C213.122871,234.380368 213.650366,234.470367 214.065368,234.650368 C214.48037,234.830369 214.807867,235.065366 215.047868,235.355368 C215.287869,235.645369 215.455367,235.970366 215.550368,236.330368 C215.645368,236.69037 215.692868,237.050366 215.692868,237.410368 L215.692868,241.790368 L214.012868,241.790368 L214.012868,240.875368 Z M213.982868,238.505368 L213.577868,238.505368 C213.287866,238.505368 212.98287,238.517868 212.662868,238.542868 C212.342866,238.567868 212.047869,238.622867 211.777868,238.707868 C211.507867,238.792868 211.282869,238.912867 211.102868,239.067868 C210.922867,239.222869 210.832868,239.435367 210.832868,239.705368 C210.832868,239.875369 210.870368,240.017867 210.945368,240.132868 C211.020368,240.247868 211.117867,240.340368 211.237868,240.410368 C211.357869,240.480368 211.492867,240.530368 211.642868,240.560368 C211.792869,240.590368 211.942867,240.605368 212.092868,240.605368 C212.712871,240.605368 213.182866,240.44037 213.502868,240.110368 C213.82287,239.780366 213.982868,239.330371 213.982868,238.760368 L213.982868,238.505368 Z M217.792868,234.590368 L219.517868,234.590368 L219.517868,235.790368 L219.547868,235.790368 C219.747869,235.370366 220.027866,235.030369 220.387868,234.770368 C220.74787,234.510367 221.167866,234.380368 221.647868,234.380368 C221.717868,234.380368 221.792868,234.382868 221.872868,234.387868 C221.952868,234.392868 222.022868,234.405368 222.082868,234.425368 L222.082868,236.075368 C221.962867,236.045368 221.860368,236.025368 221.775368,236.015368 C221.690367,236.005368 221.607868,236.000368 221.527868,236.000368 C221.117866,236.000368 220.787869,236.075367 220.537868,236.225368 C220.287867,236.375369 220.092869,236.555367 219.952868,236.765368 C219.812867,236.975369 219.717868,237.190367 219.667868,237.410368 C219.617868,237.630369 219.592868,237.805367 219.592868,237.935368 L219.592868,241.790368 L217.792868,241.790368 L217.792868,234.590368 Z M222.037868,236.030368 L222.037868,234.590368 L223.297868,234.590368 L223.297868,232.505368 L225.067868,232.505368 L225.067868,234.590368 L226.867868,234.590368 L226.867868,236.030368 L225.067868,236.030368 L225.067868,239.375368 C225.067868,239.69537 225.125367,239.960367 225.240368,240.170368 C225.355368,240.380369 225.612866,240.485368 226.012868,240.485368 C226.132869,240.485368 226.262867,240.472868 226.402868,240.447868 C226.542869,240.422868 226.667867,240.385368 226.777868,240.335368 L226.837868,241.745368 C226.677867,241.805368 226.487869,241.852868 226.267868,241.887868 C226.047867,241.922868 225.837869,241.940368 225.637868,241.940368 C225.157866,241.940368 224.767869,241.872869 224.467868,241.737868 C224.167866,241.602867 223.930369,241.417869 223.755368,241.182868 C223.580367,240.947867 223.460368,240.677869 223.395368,240.372868 C223.330368,240.067866 223.297868,239.74037 223.297868,239.390368 L223.297868,236.030368 L222.037868,236.030368 Z M230.002868,230.450368 L230.002868,235.505368 L230.047868,235.505368 C230.137868,235.385367 230.252867,235.260369 230.392868,235.130368 C230.532869,235.000367 230.700367,234.880368 230.895368,234.770368 C231.090369,234.660367 231.317867,234.567868 231.577868,234.492868 C231.837869,234.417868 232.132866,234.380368 232.462868,234.380368 C232.97287,234.380368 233.442866,234.477867 233.872868,234.672868 C234.30287,234.867869 234.672866,235.135366 234.982868,235.475368 C235.292869,235.81537 235.532867,236.215366 235.702868,236.675368 C235.872869,237.13537 235.957868,237.630365 235.957868,238.160368 C235.957868,238.690371 235.875369,239.187866 235.710368,239.652868 C235.545367,240.11787 235.310369,240.522866 235.005368,240.867868 C234.700366,241.21287 234.33037,241.487867 233.895368,241.692868 C233.460366,241.897869 232.967871,242.000368 232.417868,242.000368 C231.907865,242.000368 231.43037,241.890369 230.985368,241.670368 C230.540366,241.450367 230.192869,241.13037 229.942868,240.710368 L229.912868,240.710368 L229.912868,241.790368 L228.202868,241.790368 L228.202868,230.450368 L230.002868,230.450368 Z M234.127868,238.160368 C234.127868,237.880367 234.085368,237.602869 234.000368,237.327868 C233.915367,237.052867 233.787869,236.805369 233.617868,236.585368 C233.447867,236.365367 233.232869,236.187869 232.972868,236.052868 C232.712867,235.917867 232.40787,235.850368 232.057868,235.850368 C231.727866,235.850368 231.432869,235.920367 231.172868,236.060368 C230.912867,236.200369 230.690369,236.380367 230.505368,236.600368 C230.320367,236.820369 230.180368,237.070367 230.085368,237.350368 C229.990367,237.630369 229.942868,237.910367 229.942868,238.190368 C229.942868,238.470369 229.990367,238.747867 230.085368,239.022868 C230.180368,239.297869 230.320367,239.545367 230.505368,239.765368 C230.690369,239.985369 230.912867,240.162867 231.172868,240.297868 C231.432869,240.432869 231.727866,240.500368 232.057868,240.500368 C232.40787,240.500368 232.712867,240.430369 232.972868,240.290368 C233.232869,240.150367 233.447867,239.970369 233.617868,239.750368 C233.787869,239.530367 233.915367,239.280369 234.000368,239.000368 C234.085368,238.720367 234.127868,238.440369 234.127868,238.160368 Z M237.697868,234.590368 L239.422868,234.590368 L239.422868,235.790368 L239.452868,235.790368 C239.652869,235.370366 239.932866,235.030369 240.292868,234.770368 C240.65287,234.510367 241.072866,234.380368 241.552868,234.380368 C241.622868,234.380368 241.697868,234.382868 241.777868,234.387868 C241.857868,234.392868 241.927868,234.405368 241.987868,234.425368 L241.987868,236.075368 C241.867867,236.045368 241.765368,236.025368 241.680368,236.015368 C241.595367,236.005368 241.512868,236.000368 241.432868,236.000368 C241.022866,236.000368 240.692869,236.075367 240.442868,236.225368 C240.192867,236.375369 239.997869,236.555367 239.857868,236.765368 C239.717867,236.975369 239.622868,237.190367 239.572868,237.410368 C239.522868,237.630369 239.497868,237.805367 239.497868,237.935368 L239.497868,241.790368 L237.697868,241.790368 L237.697868,234.590368 Z M247.957868,237.470368 C247.957868,237.240367 247.925368,237.020369 247.860368,236.810368 C247.795368,236.600367 247.692869,236.415369 247.552868,236.255368 C247.412867,236.095367 247.235369,235.967868 247.020368,235.872868 C246.805367,235.777867 246.552869,235.730368 246.262868,235.730368 C245.722865,235.730368 245.26537,235.892866 244.890368,236.217868 C244.515366,236.54287 244.307868,236.960365 244.267868,237.470368 L247.957868,237.470368 Z M249.757868,238.280368 L249.757868,238.520368 C249.757868,238.600368 249.752868,238.680368 249.742868,238.760368 L244.267868,238.760368 C244.287868,239.020369 244.355367,239.257867 244.470368,239.472868 C244.585368,239.687869 244.737867,239.872867 244.927868,240.027868 C245.117869,240.182869 245.332867,240.305367 245.572868,240.395368 C245.812869,240.485368 246.062867,240.530368 246.322868,240.530368 C246.77287,240.530368 247.152866,240.447869 247.462868,240.282868 C247.772869,240.117867 248.027867,239.890369 248.227868,239.600368 L249.427868,240.560368 C248.717864,241.520373 247.687875,242.000368 246.337868,242.000368 C245.777865,242.000368 245.26287,241.912869 244.792868,241.737868 C244.322866,241.562867 243.91537,241.31537 243.570368,240.995368 C243.225366,240.675366 242.955369,240.28287 242.760368,239.817868 C242.565367,239.352866 242.467868,238.825371 242.467868,238.235368 C242.467868,237.655365 242.565367,237.12787 242.760368,236.652868 C242.955369,236.177866 243.222866,235.77287 243.562868,235.437868 C243.90287,235.102866 244.305366,234.842869 244.770368,234.657868 C245.23537,234.472867 245.737865,234.380368 246.277868,234.380368 C246.77787,234.380368 247.240366,234.462867 247.665368,234.627868 C248.09037,234.792869 248.457866,235.037866 248.767868,235.362868 C249.077869,235.68787 249.320367,236.092865 249.495368,236.577868 C249.670369,237.06287 249.757868,237.630365 249.757868,238.280368 Z M255.877868,240.875368 L255.832868,240.875368 C255.652867,241.19537 255.36287,241.457867 254.962868,241.662868 C254.562866,241.867869 254.10787,241.970368 253.597868,241.970368 C253.307866,241.970368 253.005369,241.932868 252.690368,241.857868 C252.375366,241.782868 252.085369,241.657869 251.820368,241.482868 C251.555367,241.307867 251.335369,241.077869 251.160368,240.792868 C250.985367,240.507866 250.897868,240.15537 250.897868,239.735368 C250.897868,239.195365 251.050366,238.76537 251.355368,238.445368 C251.660369,238.125366 252.052866,237.880369 252.532868,237.710368 C253.01287,237.540367 253.545365,237.427868 254.130368,237.372868 C254.715371,237.317868 255.287865,237.290368 255.847868,237.290368 L255.847868,237.110368 C255.847868,236.660366 255.68537,236.327869 255.360368,236.112868 C255.035366,235.897867 254.64787,235.790368 254.197868,235.790368 C253.817866,235.790368 253.45287,235.870367 253.102868,236.030368 C252.752866,236.190369 252.462869,236.385367 252.232868,236.615368 L251.302868,235.520368 C251.71287,235.140366 252.185365,234.855369 252.720368,234.665368 C253.255371,234.475367 253.797865,234.380368 254.347868,234.380368 C254.987871,234.380368 255.515366,234.470367 255.930368,234.650368 C256.34537,234.830369 256.672867,235.065366 256.912868,235.355368 C257.152869,235.645369 257.320367,235.970366 257.415368,236.330368 C257.510368,236.69037 257.557868,237.050366 257.557868,237.410368 L257.557868,241.790368 L255.877868,241.790368 L255.877868,240.875368 Z M255.847868,238.505368 L255.442868,238.505368 C255.152866,238.505368 254.84787,238.517868 254.527868,238.542868 C254.207866,238.567868 253.912869,238.622867 253.642868,238.707868 C253.372867,238.792868 253.147869,238.912867 252.967868,239.067868 C252.787867,239.222869 252.697868,239.435367 252.697868,239.705368 C252.697868,239.875369 252.735368,240.017867 252.810368,240.132868 C252.885368,240.247868 252.982867,240.340368 253.102868,240.410368 C253.222869,240.480368 253.357867,240.530368 253.507868,240.560368 C253.657869,240.590368 253.807867,240.605368 253.957868,240.605368 C254.577871,240.605368 255.047866,240.44037 255.367868,240.110368 C255.68787,239.780366 255.847868,239.330371 255.847868,238.760368 L255.847868,238.505368 Z M259.687868,230.450368 L261.487868,230.450368 L261.487868,237.620368 L261.532868,237.620368 L264.262868,234.590368 L266.572868,234.590368 L263.452868,237.845368 L266.767868,241.790368 L264.382868,241.790368 L261.532868,238.100368 L261.487868,238.100368 L261.487868,241.790368 L259.687868,241.790368 L259.687868,230.450368 Z" id="404s&amp;Heartbreak" fill="#98A4B3" fill-rule="nonzero" transform="translate(228.397868, 226.450368) rotate(-45.000000) translate(-228.397868, -226.450368) "></path>
            </g>
        </g>
    </g>
</svg>