<?xml version="1.0" encoding="UTF-8"?>
<svg width="1440px" height="182px" viewBox="0 0 1440 182" version="1.1" xmlns="http://www.w3.org/2000/svg" xmlns:xlink="http://www.w3.org/1999/xlink">
    <!-- Generator: Sketch 48.2 (47327) - http://www.bohemiancoding.com/sketch -->
    <title>City</title>
    <desc>Created with Sketch.</desc>
    <defs></defs>
    <g id="Copenhagen-2" stroke="none" stroke-width="1" fill="none" fill-rule="evenodd" transform="translate(0.000000, -1136.000000)">
        <g id="City" transform="translate(0.000000, 1136.000000)">
            <path d="M1382.98101,49.6734694 L1256.79873,49.6734694 C1253.99529,49.6734694 1251.72265,47.4120505 1251.72265,44.622449 C1251.72265,41.8328474 1253.99529,39.5714286 1256.79873,39.5714286 L1303.49873,39.5714286 C1309.34847,39.5694848 1314.95829,37.2573637 1319.09616,33.1428571 C1323.23402,29.0283506 1328.84384,26.7162295 1334.69358,26.7142857 L1352.53372,26.7142857 C1324.51696,9.89446839 1292.41765,1.00349996 1259.69672,1 L1049.60213,1 C1038.61932,1 1028.19027,4.58163265 1020.06853,12.0204082 C1011.79551,19.5670222 1001.01892,23.8171408 989.796602,23.9591837 L895.381399,23.9591837 C874.800177,23.9591837 855.603342,30.8469388 841.021131,44.1632653 C826.43892,57.4795918 806.226867,65.2857143 785.645645,65.2857143 L664.742502,65.2857143 C632.542891,65.2696511 601.537031,77.4138197 577.987575,99.2653061 C553.899239,121.673469 520.950825,134.163265 486.710316,134.163265 L470.928303,134.163265 C446.747674,134.163265 424.136018,143.530612 406.32357,159.877551 L382.327526,181 L1440,181 C1440.13871,131.246352 1419.48438,83.6745814 1382.98101,49.6734694 Z M1197.26955,60.6938776 C1188.60436,60.6938776 1181.57984,53.7040374 1181.57984,45.0816327 C1181.57984,36.4592279 1188.60436,29.4693878 1197.26955,29.4693878 C1205.93474,29.4693878 1212.95926,36.4592279 1212.95926,45.0816327 C1212.95926,53.7040374 1205.93474,60.6938776 1197.26955,60.6938776 Z M1346.78327,91.9183673 L1243.41576,91.9183673 C1240.86718,91.9183673 1238.80114,89.862532 1238.80114,87.3265306 C1238.80114,84.7905292 1240.86718,82.7346939 1243.41576,82.7346939 L1257.5365,82.7346939 C1265.05402,82.7530815 1272.26618,79.7766294 1277.56395,74.4693878 C1282.87218,69.1776721 1290.07755,66.2040254 1297.59141,66.2040816 L1346.78327,66.2040816 C1353.9193,66.2040816 1359.7042,71.9604206 1359.7042,79.0612245 C1359.7042,86.1620284 1353.9193,91.9183673 1346.78327,91.9183673 Z" id="Shape" fill="#F6F9FC" fill-rule="nonzero"></path>
            <path d="M775.894077,29 L775.894077,37.2909091 L766.662021,37.2909091 L766.662021,181 L810.975889,181 L810.975889,38.2121212 L815.591916,38.2121212 L815.591916,29 L775.894077,29 Z M882.062718,139.545455 L820.207944,139.545455 L861.752195,181 L882.062718,181 L882.062718,139.545455 Z M852.520139,83.3515152 L882.062718,83.3515152 L882.062718,139.545455 L852.520139,139.545455 L852.520139,83.3515152 Z" id="Shape" fill="#FFFFFF" fill-rule="nonzero"></path>
            <path d="M856.97561,90 L882.062718,90 L882.062718,91.8181818 L856.97561,91.8181818 L856.97561,90 Z M856.97561,95.4545455 L882.062718,95.4545455 L882.062718,97.2727273 L856.97561,97.2727273 L856.97561,95.4545455 Z M856.97561,100.909091 L882.062718,100.909091 L882.062718,102.727273 L856.97561,102.727273 L856.97561,100.909091 Z M856.97561,106.363636 L882.062718,106.363636 L882.062718,108.181818 L856.97561,108.181818 L856.97561,106.363636 Z M856.97561,111.818182 L882.062718,111.818182 L882.062718,113.636364 L856.97561,113.636364 L856.97561,111.818182 Z M856.97561,117.272727 L882.062718,117.272727 L882.062718,119.090909 L856.97561,119.090909 L856.97561,117.272727 Z M856.97561,122.727273 L882.062718,122.727273 L882.062718,124.545455 L856.97561,124.545455 L856.97561,122.727273 Z M856.97561,128.181818 L882.062718,128.181818 L882.062718,130 L856.97561,130 L856.97561,128.181818 Z" id="Shape" fill="#D6D6D6" fill-rule="nonzero"></path>
            <polygon id="Shape" fill="#FFFFFF" fill-rule="nonzero" points="859.986063 78 893.101045 78 893.101045 84 859.986063 84"></polygon>
            <polygon id="Shape" fill="#000000" fill-rule="nonzero" points="859.986063 78 877.463415 61 893.101045 61 893.101045 78"></polygon>
            <polygon id="Shape" fill="#000000" fill-rule="nonzero" points="943.275261 78 925.62137 61 893.101045 61 893.101045 78"></polygon>
            <path d="M903.574913,73 L903.574913,67 L898.118467,67 L903.574913,73 Z M915.397213,73 L915.397213,67 L909.940767,67 L915.397213,73 Z M927.219512,73 L927.219512,67 L921.763066,67 L927.219512,73 Z" id="Shape" fill="#000000" fill-rule="nonzero"></path>
            <path d="M878.04878,58 L893.795765,58 L893.795765,60.7476636 L878.04878,60.7476636 L878.04878,58 Z M974.383275,156 L923.437148,105.626168 L974.383275,105.626168 L974.383275,156 Z" id="Shape" fill="#FFFFFF" fill-rule="nonzero"></path>
            <path d="M965.463415,111 L967.358885,111 L967.358885,117.363636 L965.463415,117.363636 L965.463415,111 Z M957.881533,111 L959.777003,111 L959.777003,117.363636 L957.881533,117.363636 L957.881533,111 Z M950.299652,111 L952.195122,111 L952.195122,117.363636 L950.299652,117.363636 L950.299652,111 Z M965.463415,122.818182 L967.358885,122.818182 L967.358885,129.181818 L965.463415,129.181818 L965.463415,122.818182 Z M957.881533,122.818182 L959.777003,122.818182 L959.777003,129.181818 L957.881533,129.181818 L957.881533,122.818182 Z M950.299652,122.818182 L952.195122,122.818182 L952.195122,129.181818 L950.299652,129.181818 L950.299652,122.818182 Z M965.463415,134.636364 L967.358885,134.636364 L967.358885,141 L965.463415,141 L965.463415,134.636364 Z M952.195122,135.545455 L951.247387,134.636364 L952.195122,134.636364 L952.195122,135.545455 Z M959.777003,141 L958.829268,141 L957.881533,140.090909 L957.881533,134.636364 L959.777003,134.636364 L959.777003,141 Z" id="Shape" fill="#D6D6D6" fill-rule="nonzero"></path>
            <path d="M627.1777,128.64 L646.494774,128.64 L646.494774,136 L627.1777,136 L627.1777,128.64 Z M627.1777,115.76 L646.494774,115.76 L646.494774,123.12 L627.1777,123.12 L627.1777,115.76 Z M627.1777,102.88 L646.494774,102.88 L646.494774,110.24 L627.1777,110.24 L627.1777,102.88 Z M627.1777,90 L627.1777,97.36 L649.254355,97.36 L641.89547,90 L627.1777,90 Z" id="Shape" fill="#000000" fill-rule="nonzero"></path>
            <path d="M627.1777,122.529412 L646.243902,122.529412 L646.243902,128 L627.1777,128 L627.1777,122.529412 Z M627.1777,109.764706 L646.243902,109.764706 L646.243902,115.235294 L627.1777,115.235294 L627.1777,109.764706 Z M627.1777,97 L642.612245,97 L642.612245,102.470588 L627.1777,102.470588 L627.1777,97 Z" id="Shape" fill="#D6D6D6" fill-rule="nonzero"></path>
            <path d="M627.1777,128.64 L627.1777,136 L576,136 L583.444029,128.64 L627.1777,128.64 Z M627.1777,115.76 L627.1777,123.12 L586.23554,123.12 L593.679569,115.76 L627.1777,115.76 Z M627.1777,102.88 L627.1777,110.24 L594.610073,110.24 L602.054102,102.88 L627.1777,102.88 Z M627.1777,90 L627.1777,97.36 L603.915109,97.36 L611.359138,90 L627.1777,90 Z" id="Shape" fill="#000000" fill-rule="nonzero"></path>
            <path d="M594.062718,122.747126 L627.311396,122.747126 L627.311396,128.264368 L594.062718,128.264368 L594.062718,122.747126 Z M602.374887,109.873563 L627.311396,109.873563 L627.311396,115.390805 L602.374887,115.390805 L602.374887,109.873563 Z M611.610631,97 L627.311396,97 L627.311396,102.517241 L611.610631,102.517241 L611.610631,97 Z M1197.15679,177 L1160.21382,140.218391 L1150.97807,140.218391 L1150.97807,105.275862 L1197.15679,105.275862 L1197.15679,177 Z" id="Shape" fill="#FFFFFF" fill-rule="nonzero"></path>
            <polygon id="Shape" fill="#000000" fill-rule="nonzero" points="1196.15331 98 1196.15331 105 1220.23693 105 1212.82659 98"></polygon>
            <polygon id="Shape" fill="#000000" fill-rule="nonzero" points="1196.15331 98 1196.15331 105 1149.99303 105 1157.74796 98"></polygon>
            <path d="M1190.29341,110 L1192.13937,110 L1192.13937,116.454545 L1190.29341,116.454545 L1190.29341,110 Z M1182.90956,110 L1184.75553,110 L1184.75553,116.454545 L1182.90956,116.454545 L1182.90956,110 Z M1175.52572,110 L1177.37168,110 L1177.37168,116.454545 L1175.52572,116.454545 L1175.52572,110 Z M1168.14187,110 L1169.98783,110 L1169.98783,116.454545 L1168.14187,116.454545 L1168.14187,110 Z M1160.75802,110 L1162.60398,110 L1162.60398,116.454545 L1160.75802,116.454545 L1160.75802,110 Z M1153.37417,110 L1155.22014,110 L1155.22014,116.454545 L1153.37417,116.454545 L1153.37417,110 Z M1190.29341,121.987013 L1192.13937,121.987013 L1192.13937,128.441558 L1190.29341,128.441558 L1190.29341,121.987013 Z M1182.90956,121.987013 L1184.75553,121.987013 L1184.75553,128.441558 L1182.90956,128.441558 L1182.90956,121.987013 Z M1175.52572,121.987013 L1177.37168,121.987013 L1177.37168,128.441558 L1175.52572,128.441558 L1175.52572,121.987013 Z M1168.14187,121.987013 L1169.98783,121.987013 L1169.98783,128.441558 L1168.14187,128.441558 L1168.14187,121.987013 Z M1160.75802,121.987013 L1162.60398,121.987013 L1162.60398,128.441558 L1160.75802,128.441558 L1160.75802,121.987013 Z M1153.37417,121.987013 L1155.22014,121.987013 L1155.22014,128.441558 L1153.37417,128.441558 L1153.37417,121.987013 Z M1190.29341,133.974026 L1192.13937,133.974026 L1192.13937,140.428571 L1190.29341,140.428571 L1190.29341,133.974026 Z M1182.90956,133.974026 L1184.75553,133.974026 L1184.75553,140.428571 L1182.90956,140.428571 L1182.90956,133.974026 Z M1175.52572,133.974026 L1177.37168,133.974026 L1177.37168,140.428571 L1175.52572,140.428571 L1175.52572,133.974026 Z M1168.14187,133.974026 L1169.98783,133.974026 L1169.98783,140.428571 L1168.14187,140.428571 L1168.14187,133.974026 Z M1160.75802,133.974026 L1162.60398,133.974026 L1162.60398,140.428571 L1160.75802,140.428571 L1160.75802,133.974026 Z M1153.37417,133.974026 L1155.22014,133.974026 L1155.22014,140.428571 L1153.37417,140.428571 L1153.37417,133.974026 Z M697.421603,148.727273 L765.72219,148.727273 L765.72219,181 L697.421603,181 L697.421603,148.727273 Z" id="Shape" fill="#D6D6D6" fill-rule="nonzero"></path>
            <polygon id="Shape" fill="#000000" fill-rule="nonzero" points="697.421603 149 765.658537 149 765.658537 181 697.421603 181"></polygon>
            <path d="M697.860163,29.4010152 L697.860163,73.5025381 L682.190941,73.5025381 L682.190941,79.0152284 L659.147967,79.0152284 C652.021249,79.0152284 646.243902,84.7741647 646.243902,91.8781726 L646.243902,181 L697.860163,181 L697.860163,79.0152284 L727.355168,79.0152284 L727.355168,0 L697.860163,29.4010152 Z M893.264576,45.0203046 L895.108014,45.0203046 L895.108014,57.8832487 L893.264576,57.8832487 L893.264576,45.0203046 Z" id="Shape" fill="#FFFFFF" fill-rule="nonzero"></path>
            <polygon id="Shape" fill="#000000" fill-rule="nonzero" points="895.108014 45 901.12892 45 901.12892 47 895.108014 47"></polygon>
            <polygon id="Shape" fill="#FFFFFF" fill-rule="nonzero" points="909.156794 45 911.163763 45 911.163763 58 909.156794 58"></polygon>
            <polygon id="Shape" fill="#000000" fill-rule="nonzero" points="911.163763 45 917.184669 45 917.184669 47 911.163763 47"></polygon>
            <polygon id="Shape" fill="#FFFFFF" fill-rule="nonzero" points="924.209059 45 926.216028 45 926.216028 58 924.209059 58"></polygon>
            <polygon id="Shape" fill="#000000" fill-rule="nonzero" points="926.216028 45 932.236934 45 932.236934 47 926.216028 47"></polygon>
            <path d="M691.119721,153.363636 L692.966132,153.363636 L692.966132,159.812121 L691.119721,159.812121 L691.119721,153.363636 Z M683.734077,153.363636 L685.580488,153.363636 L685.580488,159.812121 L683.734077,159.812121 L683.734077,153.363636 Z M676.348432,153.363636 L678.194843,153.363636 L678.194843,159.812121 L676.348432,159.812121 L676.348432,153.363636 Z M691.119721,165.339394 L692.966132,165.339394 L692.966132,171.787879 L691.119721,171.787879 L691.119721,165.339394 Z M683.734077,165.339394 L685.580488,165.339394 L685.580488,171.787879 L683.734077,171.787879 L683.734077,165.339394 Z M676.348432,165.339394 L678.194843,165.339394 L678.194843,171.787879 L676.348432,171.787879 L676.348432,165.339394 Z M819.445296,139.545455 L836.062997,139.545455 L836.062997,38.2121212 L831.446969,38.2121212 L831.446969,29 L814.829268,29 L814.829268,38.2121212 L810.21324,38.2121212 L810.21324,181 L860.989547,181 L819.445296,139.545455 Z" id="Shape" fill="#D6D6D6" fill-rule="nonzero"></path>
            <polygon id="Shape" fill="#000000" fill-rule="nonzero" points="556.933798 136 595.066202 136 595.066202 181 556.933798 181"></polygon>
            <path d="M556.933798,136.106145 L556.933798,181 L646.32582,181 L646.32582,136.106145 L556.933798,136.106145 Z M775.345232,17 L777.188367,17 L777.188367,29.8268156 L775.345232,29.8268156 L775.345232,17 Z M780.874636,17 L782.71777,17 L782.71777,29.8268156 L780.874636,29.8268156 L780.874636,17 Z" id="Shape" fill="#D6D6D6" fill-rule="nonzero"></path>
            <path d="M964.348432,12 C957.775717,12.1835233 952.490783,17.4501067 952.30662,24 L976.390244,24 C976.206081,17.4501067 970.921147,12.1835233 964.348432,12 Z" id="Shape" fill="#000000" fill-rule="nonzero"></path>
            <path d="M964.348432,12 L964.348432,24 L976.390244,24 C976.206081,17.4501067 970.921147,12.1835233 964.348432,12 Z" id="Shape" fill="#000000" fill-rule="nonzero"></path>
            <polygon id="Shape" fill="#FFFFFF" fill-rule="nonzero" points="966.355401 102 966.355401 26.7529412 964.50899 26.7529412 964.50899 24 946.044878 24 946.044878 26.7529412 943.275261 26.7529412 943.275261 102"></polygon>
            <path d="M961.456036,31 L963.344948,31 L963.344948,37.4509804 L961.456036,37.4509804 L961.456036,31 Z M961.456036,41.1372549 L963.344948,41.1372549 L963.344948,47.5882353 L961.456036,47.5882353 L961.456036,41.1372549 Z M961.456036,51.2745098 L963.344948,51.2745098 L963.344948,57.7254902 L961.456036,57.7254902 L961.456036,51.2745098 Z M961.456036,61.4117647 L963.344948,61.4117647 L963.344948,67.8627451 L961.456036,67.8627451 L961.456036,61.4117647 Z M961.456036,71.5490196 L963.344948,71.5490196 L963.344948,78 L961.456036,78 L961.456036,71.5490196 Z M956.733757,31 L958.622669,31 L958.622669,37.4509804 L956.733757,37.4509804 L956.733757,31 Z M956.733757,41.1372549 L958.622669,41.1372549 L958.622669,47.5882353 L956.733757,47.5882353 L956.733757,41.1372549 Z M956.733757,51.2745098 L958.622669,51.2745098 L958.622669,57.7254902 L956.733757,57.7254902 L956.733757,51.2745098 Z M956.733757,61.4117647 L958.622669,61.4117647 L958.622669,67.8627451 L956.733757,67.8627451 L956.733757,61.4117647 Z M956.733757,71.5490196 L958.622669,71.5490196 L958.622669,78 L956.733757,78 L956.733757,71.5490196 Z M952.011478,31 L953.900389,31 L953.900389,37.4509804 L952.011478,37.4509804 L952.011478,31 Z M952.011478,41.1372549 L953.900389,41.1372549 L953.900389,47.5882353 L952.011478,47.5882353 L952.011478,41.1372549 Z M952.011478,51.2745098 L953.900389,51.2745098 L953.900389,57.7254902 L952.011478,57.7254902 L952.011478,51.2745098 Z M952.011478,61.4117647 L953.900389,61.4117647 L953.900389,67.8627451 L952.011478,67.8627451 L952.011478,61.4117647 Z M952.011478,71.5490196 L953.900389,71.5490196 L953.900389,78 L952.011478,78 L952.011478,71.5490196 Z M947.289199,31 L949.17811,31 L949.17811,37.4509804 L947.289199,37.4509804 L947.289199,31 Z M947.289199,41.1372549 L949.17811,41.1372549 L949.17811,47.5882353 L947.289199,47.5882353 L947.289199,41.1372549 Z M947.289199,51.2745098 L949.17811,51.2745098 L949.17811,57.7254902 L947.289199,57.7254902 L947.289199,51.2745098 Z M947.289199,61.4117647 L949.17811,61.4117647 L949.17811,67.8627451 L947.289199,67.8627451 L947.289199,61.4117647 Z M947.289199,71.5490196 L949.17811,71.5490196 L949.17811,78 L947.289199,78 L947.289199,71.5490196 Z" id="Shape" fill="#D6D6D6" fill-rule="nonzero"></path>
            <polygon id="Shape" fill="#FFFFFF" fill-rule="nonzero" points="1054.66202 35 1078.74564 35 1078.74564 127 1054.66202 127"></polygon>
            <path d="M1101.82578,127 L1077.74216,127 L1077.74216,35 C1091.04318,35 1101.82578,45.7093488 1101.82578,58.92 L1101.82578,127 Z" id="Shape" fill="#D6D6D6" fill-rule="nonzero"></path>
            <polygon id="Shape" fill="#FFFFFF" fill-rule="nonzero" points="1036.5993 141 1092.79443 141 1092.79443 181 1036.5993 181"></polygon>
            <polygon id="Shape" fill="#D6D6D6" fill-rule="nonzero" points="1092.79443 141 1159.02439 141 1159.02439 181 1092.79443 181"></polygon>
            <path d="M1106.59233,153 C1105.06826,153 1103.83275,154.213164 1103.83275,155.709677 L1103.83275,181 L1109.35192,181 L1109.35192,155.709677 C1109.35192,154.213164 1108.11641,153 1106.59233,153 Z M1119.47038,153 C1117.94631,153 1116.7108,154.213164 1116.7108,155.709677 L1116.7108,181 L1122.22997,181 L1122.22997,155.709677 C1122.22997,154.213164 1120.99446,153 1119.47038,153 Z M1132.34843,153 C1130.82436,153 1129.58885,154.213164 1129.58885,155.709677 L1129.58885,181 L1135.10801,181 L1135.10801,155.709677 C1135.10801,154.213164 1133.87251,153 1132.34843,153 Z M1145.22648,153 C1143.70241,153 1142.4669,154.213164 1142.4669,155.709677 L1142.4669,181 L1147.98606,181 L1147.98606,155.709677 C1147.98606,154.213164 1146.75056,153 1145.22648,153 Z" id="Shape" fill="#000000" fill-rule="nonzero"></path>
            <path d="M1057.40685,153 C1055.89092,153 1054.66202,154.213164 1054.66202,155.709677 L1054.66202,181 L1060.15167,181 L1060.15167,155.709677 C1060.15167,154.213164 1058.92277,153 1057.40685,153 Z M1070.21603,153 C1068.7001,153 1067.4712,154.213164 1067.4712,155.709677 L1067.4712,181 L1072.96085,181 L1072.96085,155.709677 C1072.96085,154.213164 1071.73195,153 1070.21603,153 Z M1083.02521,153 C1081.50929,153 1080.28039,154.213164 1080.28039,155.709677 L1080.28039,181 L1085.77003,181 L1085.77003,155.709677 C1085.77003,154.213164 1084.54113,153 1083.02521,153 Z" id="Shape" fill="#D6D6D6" fill-rule="nonzero"></path>
            <path d="M671.33101,149 L671.33101,145.363636 L676.002403,145.363636 C680.202895,145.315764 684.221068,143.686662 687.213745,140.818182 L689.082302,139 L698.425087,139 L698.425087,149 L671.33101,149 Z" id="Shape" fill="#000000" fill-rule="nonzero"></path>
            <path d="M765.738815,149 L765.738815,145.333408 L762.045993,145.333408 C757.799247,145.333408 752.998578,143.683441 750.044321,140.750168 L748.197909,138.916872 L697.421603,138.916872 L697.421603,149 L765.738815,149 Z M1092.55359,140.750168 L1159.02439,140.750168 C1150.26685,131.904149 1138.28167,126.945798 1125.78899,127.000447 C1113.30991,127.013648 1101.35007,131.961519 1092.55359,140.750168 Z" id="Shape" fill="#000000" fill-rule="nonzero"></path>
            <path d="M1200.16725,181 L1159.6468,140.410853 L1159.6468,181 L1200.16725,181 Z M1054.66202,62 L1078.60592,62 L1078.60592,63.8449612 L1054.66202,63.8449612 L1054.66202,62 Z M1054.66202,67.5348837 L1078.60592,67.5348837 L1078.60592,69.379845 L1054.66202,69.379845 L1054.66202,67.5348837 Z M1054.66202,73.0697674 L1078.60592,73.0697674 L1078.60592,74.9147287 L1054.66202,74.9147287 L1054.66202,73.0697674 Z M1054.66202,78.6046512 L1078.60592,78.6046512 L1078.60592,80.4496124 L1054.66202,80.4496124 L1054.66202,78.6046512 Z M1054.66202,84.1395349 L1078.60592,84.1395349 L1078.60592,85.9844961 L1054.66202,85.9844961 L1054.66202,84.1395349 Z M1054.66202,89.6744186 L1078.60592,89.6744186 L1078.60592,91.5193798 L1054.66202,91.5193798 L1054.66202,89.6744186 Z M1054.66202,95.2093023 L1078.60592,95.2093023 L1078.60592,97.0542636 L1054.66202,97.0542636 L1054.66202,95.2093023 Z M1054.66202,100.744186 L1078.60592,100.744186 L1078.60592,102.589147 L1054.66202,102.589147 L1054.66202,100.744186 Z" id="Shape" fill="#D6D6D6" fill-rule="nonzero"></path>
            <path d="M1077.74216,62 L1101.82578,62 L1101.82578,63.8181818 L1077.74216,63.8181818 L1077.74216,62 Z M1077.74216,67.4545455 L1101.82578,67.4545455 L1101.82578,69.2727273 L1077.74216,69.2727273 L1077.74216,67.4545455 Z M1077.74216,72.9090909 L1101.82578,72.9090909 L1101.82578,74.7272727 L1077.74216,74.7272727 L1077.74216,72.9090909 Z M1077.74216,78.3636364 L1101.82578,78.3636364 L1101.82578,80.1818182 L1077.74216,80.1818182 L1077.74216,78.3636364 Z M1077.74216,83.8181818 L1101.82578,83.8181818 L1101.82578,85.6363636 L1077.74216,85.6363636 L1077.74216,83.8181818 Z M1077.74216,89.2727273 L1101.82578,89.2727273 L1101.82578,91.0909091 L1077.74216,91.0909091 L1077.74216,89.2727273 Z M1077.74216,94.7272727 L1101.82578,94.7272727 L1101.82578,96.5454545 L1077.74216,96.5454545 L1077.74216,94.7272727 Z M1077.74216,100.181818 L1101.82578,100.181818 L1101.82578,102 L1077.74216,102 L1077.74216,100.181818 Z" id="Shape" fill="#000000" fill-rule="nonzero"></path>
            <path d="M1077.74216,35 L1077.74216,59 L1101.82578,59 C1101.7851,45.7619969 1091.02629,35.0405455 1077.74216,35 Z" id="Shape" fill="#000000" fill-rule="nonzero"></path>
            <polygon id="Shape" fill="#D6D6D6" fill-rule="nonzero" points="1232.27875 149 1264.39024 149 1264.39024 181 1232.27875 181"></polygon>
            <polygon id="Shape" fill="#000000" fill-rule="nonzero" points="1232.27875 149 1264.39024 149 1264.39024 181 1232.27875 181"></polygon>
            <polygon id="Shape" fill="#000000" fill-rule="nonzero" points="1232.27875 149 1208.19512 149 1220.23693 137"></polygon>
            <path d="M1252.39891,137 L1220.11456,137 L1232.10589,148.916667 L1264.39024,148.916667 L1252.39891,137 Z M797.650718,164.5 L797.650718,166.333333 C797.532521,167.502674 796.972071,168.583831 796.082621,169.358333 L794.237801,171.191667 L793.961078,171.466667 L793.961078,164.5 L792.116257,164.5 L792.116257,181 L793.961078,181 L793.961078,175.958333 C794.07078,174.654003 794.623781,173.425579 795.529175,172.475 L797.373995,170.641667 C798.615014,169.532096 799.375373,167.987992 799.495538,166.333333 L799.495538,164.5 L797.650718,164.5 Z M868.676298,170.916667 L870.521118,170.916667 L870.521118,181 L868.676298,181 L868.676298,170.916667 Z M659.289199,170.916667 L661.134019,170.916667 L661.134019,181 L659.289199,181 L659.289199,170.916667 Z" id="Shape" fill="#000000" fill-rule="nonzero"></path>
            <polygon id="Shape" fill="#D6D6D6" fill-rule="nonzero" points="893.101045 58 925.212544 58 925.212544 61 893.101045 61"></polygon>
            <path d="M452.571429,181 C441.955341,181.006926 431.790402,176.751085 424.401166,169.205711 C415.257376,160.154287 402.69621,154.485718 389.765598,154.485718 L354.668222,154.485718 C347.2793,154.485718 340.53691,152.382862 335.272303,147.171435 C329.828802,141.930857 322.546004,138.981626 314.95277,138.942868 L241.063557,138.942868 C231.020877,138.936031 221.389941,134.991073 214.278717,127.971444 C207.167494,120.951816 197.536558,117.006857 187.493878,117.000021 L92.361516,117.000021 C74.7137778,116.98623 57.7782713,123.889232 45.2571429,136.200012 L0,181 L452.571429,181 Z" id="Shape" fill="#F6F9FC" fill-rule="nonzero"></path>
            <path d="M597.073171,139 L597.073171,168 L598.925757,168 L598.925757,140.8125 L597.073171,139 Z M604.483516,146.25 L604.483516,168 L606.336103,168 L606.336103,148.0625 L604.483516,146.25 Z M611.893862,153.5 L611.893862,168 L613.746449,168 L613.746449,155.3125 L611.893862,153.5 Z M619.304208,160.75 L619.304208,168 L621.156794,168 L621.156794,162.5625 L619.304208,160.75 Z" id="Shape" fill="#000000" fill-rule="nonzero"></path>
            <path d="M556.933798,136 L540.303641,136.000016 C537.533391,135.995141 534.874634,137.072202 532.912267,138.994259 C530.949901,140.916316 529.844673,143.525922 529.839721,146.248992 L529.839721,181 L556.933798,181 L556.933798,136 Z" id="Shape" fill="#FFFFFF" fill-rule="nonzero"></path>
            <path d="M632.195122,138.607407 L634.039601,138.607407 L634.039601,168 L632.195122,168 L632.195122,138.607407 Z M638.650798,138.607407 L640.495277,138.607407 L640.495277,168 L638.650798,168 L638.650798,138.607407 Z M814.798527,44 L821.254203,44 L821.254203,45.837037 L814.798527,45.837037 L814.798527,44 Z M824.943161,44 L831.398837,44 L831.398837,45.837037 L824.943161,45.837037 L824.943161,44 Z M814.798527,49.5111111 L821.254203,49.5111111 L821.254203,51.3481481 L814.798527,51.3481481 L814.798527,49.5111111 Z M824.943161,49.5111111 L831.398837,49.5111111 L831.398837,51.3481481 L824.943161,51.3481481 L824.943161,49.5111111 Z M814.798527,55.0222222 L821.254203,55.0222222 L821.254203,56.8592593 L814.798527,56.8592593 L814.798527,55.0222222 Z M824.943161,55.0222222 L831.398837,55.0222222 L831.398837,56.8592593 L824.943161,56.8592593 L824.943161,55.0222222 Z M814.798527,60.5333333 L821.254203,60.5333333 L821.254203,62.3703704 L814.798527,62.3703704 L814.798527,60.5333333 Z M824.943161,60.5333333 L831.398837,60.5333333 L831.398837,62.3703704 L824.943161,62.3703704 L824.943161,60.5333333 Z M814.798527,66.0444444 L821.254203,66.0444444 L821.254203,67.8814815 L814.798527,67.8814815 L814.798527,66.0444444 Z M824.943161,66.0444444 L831.398837,66.0444444 L831.398837,67.8814815 L824.943161,67.8814815 L824.943161,66.0444444 Z M814.798527,71.5555556 L821.254203,71.5555556 L821.254203,73.3925926 L814.798527,73.3925926 L814.798527,71.5555556 Z M824.943161,71.5555556 L831.398837,71.5555556 L831.398837,73.3925926 L824.943161,73.3925926 L824.943161,71.5555556 Z M814.798527,77.0666667 L821.254203,77.0666667 L821.254203,78.9037037 L814.798527,78.9037037 L814.798527,77.0666667 Z M824.943161,77.0666667 L831.398837,77.0666667 L831.398837,78.9037037 L824.943161,78.9037037 L824.943161,77.0666667 Z M814.798527,82.5777778 L821.254203,82.5777778 L821.254203,84.4148148 L814.798527,84.4148148 L814.798527,82.5777778 Z M824.943161,82.5777778 L831.398837,82.5777778 L831.398837,84.4148148 L824.943161,84.4148148 L824.943161,82.5777778 Z M814.798527,88.0888889 L821.254203,88.0888889 L821.254203,89.9259259 L814.798527,89.9259259 L814.798527,88.0888889 Z M824.943161,88.0888889 L831.398837,88.0888889 L831.398837,89.9259259 L824.943161,89.9259259 L824.943161,88.0888889 Z M814.798527,93.6 L821.254203,93.6 L821.254203,95.437037 L814.798527,95.437037 L814.798527,93.6 Z M824.943161,93.6 L831.398837,93.6 L831.398837,95.437037 L824.943161,95.437037 L824.943161,93.6 Z M814.798527,99.1111111 L821.254203,99.1111111 L821.254203,100.948148 L814.798527,100.948148 L814.798527,99.1111111 Z M824.943161,99.1111111 L831.398837,99.1111111 L831.398837,100.948148 L824.943161,100.948148 L824.943161,99.1111111 Z M814.798527,104.622222 L821.254203,104.622222 L821.254203,106.459259 L814.798527,106.459259 L814.798527,104.622222 Z M824.943161,104.622222 L831.398837,104.622222 L831.398837,106.459259 L824.943161,106.459259 L824.943161,104.622222 Z M814.798527,110.133333 L821.254203,110.133333 L821.254203,111.97037 L814.798527,111.97037 L814.798527,110.133333 Z M824.943161,110.133333 L831.398837,110.133333 L831.398837,111.97037 L824.943161,111.97037 L824.943161,110.133333 Z M814.798527,115.644444 L821.254203,115.644444 L821.254203,117.481481 L814.798527,117.481481 L814.798527,115.644444 Z M824.943161,115.644444 L831.398837,115.644444 L831.398837,117.481481 L824.943161,117.481481 L824.943161,115.644444 Z M814.798527,121.155556 L821.254203,121.155556 L821.254203,122.992593 L814.798527,122.992593 L814.798527,121.155556 Z M824.943161,121.155556 L831.398837,121.155556 L831.398837,122.992593 L824.943161,122.992593 L824.943161,121.155556 Z M814.798527,126.666667 L821.254203,126.666667 L821.254203,128.503704 L814.798527,128.503704 L814.798527,126.666667 Z M824.943161,126.666667 L831.398837,126.666667 L831.398837,128.503704 L824.943161,128.503704 L824.943161,126.666667 Z M814.798527,132.177778 L821.254203,132.177778 L821.254203,134.014815 L814.798527,134.014815 L814.798527,132.177778 Z M824.943161,132.177778 L831.398837,132.177778 L831.398837,134.014815 L824.943161,134.014815 L824.943161,132.177778 Z M1036.13599,126.666667 L1053.65854,126.666667 L1053.65854,140.444444 L1036.13599,140.444444 L1036.13599,126.666667 Z" id="Shape" fill="#000000" fill-rule="nonzero"></path>
            <path d="M1126.91289,127 L1054.66202,127 L1054.66202,141 L1093.56634,141 C1102.39224,132.051376 1114.39208,127.013441 1126.91289,127 Z" id="Shape" fill="#000000" fill-rule="nonzero"></path>
            <polygon id="Shape" fill="#D6D6D6" fill-rule="nonzero" points="1232.27875 159.04878 1220.23693 159.04878 1220.23693 106 1196.15331 106 1196.15331 181 1232.27875 181"></polygon>
            <path d="M1215.33101,110 L1217.22648,110 L1217.22648,116.363636 L1215.33101,116.363636 L1215.33101,110 Z M1207.74913,110 L1209.6446,110 L1209.6446,116.363636 L1207.74913,116.363636 L1207.74913,110 Z M1200.16725,110 L1202.06272,110 L1202.06272,116.363636 L1200.16725,116.363636 L1200.16725,110 Z M1215.33101,121.818182 L1217.22648,121.818182 L1217.22648,128.181818 L1215.33101,128.181818 L1215.33101,121.818182 Z M1207.74913,121.818182 L1209.6446,121.818182 L1209.6446,128.181818 L1207.74913,128.181818 L1207.74913,121.818182 Z M1200.16725,121.818182 L1202.06272,121.818182 L1202.06272,128.181818 L1200.16725,128.181818 L1200.16725,121.818182 Z M1215.33101,133.636364 L1217.22648,133.636364 L1217.22648,140 L1215.33101,140 L1215.33101,133.636364 Z M1207.74913,133.636364 L1209.6446,133.636364 L1209.6446,140 L1207.74913,140 L1207.74913,133.636364 Z M1200.16725,133.636364 L1202.06272,133.636364 L1202.06272,140 L1200.16725,140 L1200.16725,133.636364 Z" id="Shape" fill="#000000" fill-rule="nonzero"></path>
            <path d="M761.979094,145 L765.658537,145 L765.658537,105 L754.620209,105 L754.620209,143.454545 C756.943467,144.452249 759.44608,144.977828 761.979094,145 Z" id="Shape" fill="#000000" fill-rule="nonzero"></path>
            <path d="M750.992227,140.25 C752.163922,141.370167 753.508457,142.298466 754.975288,143 L755.623693,143 L755.623693,0 L727.834897,0 L727.834897,78.8333333 L698.193514,78.8333333 L698.193514,138.416667 L749.139641,138.416667 L750.992227,140.25 Z M659.289199,85.25 L698.193514,85.25 L698.193514,87.0833333 L659.289199,87.0833333 L659.289199,85.25 Z M659.289199,90.75 L698.193514,90.75 L698.193514,92.5833333 L659.289199,92.5833333 L659.289199,90.75 Z M659.289199,96.25 L698.193514,96.25 L698.193514,98.0833333 L659.289199,98.0833333 L659.289199,96.25 Z M659.289199,101.75 L698.193514,101.75 L698.193514,103.583333 L659.289199,103.583333 L659.289199,101.75 Z M659.289199,107.25 L698.193514,107.25 L698.193514,109.083333 L659.289199,109.083333 L659.289199,107.25 Z M659.289199,112.75 L698.193514,112.75 L698.193514,114.583333 L659.289199,114.583333 L659.289199,112.75 Z M659.289199,118.25 L698.193514,118.25 L698.193514,120.083333 L659.289199,120.083333 L659.289199,118.25 Z M659.289199,123.75 L698.193514,123.75 L698.193514,125.583333 L659.289199,125.583333 L659.289199,123.75 Z" id="Shape" fill="#D6D6D6" fill-rule="nonzero"></path>
            <path d="M697.421603,85.5328467 L729.012776,85.5328467 L729.012776,87.3722628 L697.421603,87.3722628 L697.421603,85.5328467 Z M697.421603,91.0510949 L729.012776,91.0510949 L729.012776,92.8905109 L697.421603,92.8905109 L697.421603,91.0510949 Z M697.421603,96.5693431 L729.012776,96.5693431 L729.012776,98.4087591 L697.421603,98.4087591 L697.421603,96.5693431 Z M697.421603,102.087591 L729.012776,102.087591 L729.012776,103.927007 L697.421603,103.927007 L697.421603,102.087591 Z M697.421603,107.605839 L729.012776,107.605839 L729.012776,109.445255 L697.421603,109.445255 L697.421603,107.605839 Z M697.421603,113.124088 L729.012776,113.124088 L729.012776,114.963504 L697.421603,114.963504 L697.421603,113.124088 Z M697.421603,118.642336 L729.012776,118.642336 L729.012776,120.481752 L697.421603,120.481752 L697.421603,118.642336 Z M697.421603,124.160584 L729.012776,124.160584 L729.012776,126 L697.421603,126 L697.421603,124.160584 Z M734.587689,0 L736.445993,0 L736.445993,126 L734.587689,126 L734.587689,0 Z M740.162602,0 L742.020906,0 L742.020906,126 L740.162602,126 L740.162602,0 Z M745.737515,0 L747.595819,0 L747.595819,126 L745.737515,126 L745.737515,0 Z" id="Shape" fill="#000000" fill-rule="nonzero"></path>
            <polygon id="Shape" fill="#FFFFFF" fill-rule="nonzero" points="594.062718 136 626.174216 136 626.174216 168"></polygon>
            <path d="M598.925757,140.846154 L598.925757,139 L597.073171,139 L598.925757,140.846154 Z M606.336103,148.230769 L606.336103,139 L604.483516,139 L604.483516,146.384615 L606.336103,148.230769 Z M613.746449,155.615385 L613.746449,139 L611.893862,139 L611.893862,153.769231 L613.746449,155.615385 Z M621.156794,163 L621.156794,139 L619.304208,139 L619.304208,161.153846 L621.156794,163 Z" id="Shape" fill="#D6D6D6" fill-rule="nonzero"></path>
            <polygon id="Shape" fill="#000000" fill-rule="nonzero" points="1036.5993 66 1053.65854 66 1053.65854 127 1036.5993 127"></polygon>
            <polygon id="Shape" fill="#D6D6D6" fill-rule="nonzero" points="980.650491 26.754386 980.650491 24 964.987013 24 964.987013 26.754386 966.829775 26.754386 966.829775 100.204678 950.244916 83.6783626 943.795249 83.6783626 943.795249 78.1695906 894.040672 78.1695906 894.040672 83.6783626 882.062718 83.6783626 882.062718 181 974.200824 181 974.200824 156.210526 923.524865 105.71345 983.414634 105.71345 983.414634 26.754386"></polygon>
            <path d="M882.062718,89.6666667 L950.074571,89.6666667 L950.074571,91.5 L882.062718,91.5 L882.062718,89.6666667 Z M882.062718,95.1666667 L950.074571,95.1666667 L950.074571,97 L882.062718,97 L882.062718,95.1666667 Z M882.062718,100.666667 L950.074571,100.666667 L950.074571,102.5 L882.062718,102.5 L882.062718,100.666667 Z M882.062718,106.166667 L923.421277,106.166667 L923.421277,108 L882.062718,108 L882.062718,106.166667 Z M882.062718,111.666667 L923.421277,111.666667 L923.421277,113.5 L882.062718,113.5 L882.062718,111.666667 Z M882.062718,117.166667 L923.421277,117.166667 L923.421277,119 L882.062718,119 L882.062718,117.166667 Z M882.062718,122.666667 L923.421277,122.666667 L923.421277,124.5 L882.062718,124.5 L882.062718,122.666667 Z M882.062718,128.166667 L923.421277,128.166667 L923.421277,130 L882.062718,130 L882.062718,128.166667 Z" id="Shape" fill="#000000" fill-rule="nonzero"></path>
            <path d="M945.575436,145.447275 C945.041925,144.988479 944.294615,144.872145 943.647072,145.147088 C942.999529,145.42203 942.563775,146.040684 942.522648,146.743468 L942.522648,156.927842 L930.774042,145.447275 C930.240531,144.988479 929.493221,144.872145 928.845678,145.147088 C928.198135,145.42203 927.762381,146.040684 927.721254,146.743468 L927.721254,156.927842 L915.972648,145.447275 C915.439137,144.988479 914.691827,144.872145 914.044285,145.147088 C913.396742,145.42203 912.960987,146.040684 912.919861,146.743468 L912.919861,156.927842 L901.171254,145.447275 C900.637743,144.988479 899.890434,144.872145 899.242891,145.147088 C898.595348,145.42203 898.159593,146.040684 898.118467,146.743468 L898.118467,181 L957.324042,181 L957.324042,156.927842 L945.575436,145.447275 Z" id="Shape" fill="#FFFFFF" fill-rule="nonzero"></path>
            <path d="M902.132404,163 L908.629965,163 L908.629965,164.857143 L902.132404,164.857143 L902.132404,163 Z M912.342857,163 L918.840418,163 L918.840418,164.857143 L912.342857,164.857143 L912.342857,163 Z M922.55331,163 L929.050871,163 L929.050871,164.857143 L922.55331,164.857143 L922.55331,163 Z M932.763763,163 L939.261324,163 L939.261324,164.857143 L932.763763,164.857143 L932.763763,163 Z M902.132404,168.571429 L908.629965,168.571429 L908.629965,170.428571 L902.132404,170.428571 L902.132404,168.571429 Z M912.342857,168.571429 L918.840418,168.571429 L918.840418,170.428571 L912.342857,170.428571 L912.342857,168.571429 Z M922.55331,168.571429 L929.050871,168.571429 L929.050871,170.428571 L922.55331,170.428571 L922.55331,168.571429 Z M932.763763,168.571429 L939.261324,168.571429 L939.261324,170.428571 L932.763763,170.428571 L932.763763,168.571429 Z M902.132404,174.142857 L908.629965,174.142857 L908.629965,176 L902.132404,176 L902.132404,174.142857 Z M912.342857,174.142857 L918.840418,174.142857 L918.840418,176 L912.342857,176 L912.342857,174.142857 Z M922.55331,174.142857 L929.050871,174.142857 L929.050871,176 L922.55331,176 L922.55331,174.142857 Z M932.763763,174.142857 L939.261324,174.142857 L939.261324,176 L932.763763,176 L932.763763,174.142857 Z" id="Shape" fill="#D6D6D6" fill-rule="nonzero"></path>
            <path d="M962.341463,163 L968.362369,163 L968.362369,164.857143 L962.341463,164.857143 L962.341463,163 Z M962.341463,168.571429 L968.362369,168.571429 L968.362369,170.428571 L962.341463,170.428571 L962.341463,168.571429 Z M962.341463,174.142857 L968.362369,174.142857 L968.362369,176 L962.341463,176 L962.341463,174.142857 Z" id="Shape" fill="#000000" fill-rule="nonzero"></path>
            <path d="M943.38676,135 L945.28223,135 L945.28223,141 L943.38676,141 L943.38676,135 Z M935.804878,135 L937.700348,135 L937.700348,141 L935.804878,141 L935.804878,135 Z M928.222997,135 L930.118467,135 L930.118467,141 L928.222997,141 L928.222997,135 Z" id="Shape" fill="#D6D6D6" fill-rule="nonzero"></path>
            <path d="M950.454034,135 L952.30662,135 L952.30662,141 L950.454034,141 L950.454034,135 Z M943.043688,135 L944.896274,135 L944.896274,141 L943.043688,141 L943.043688,135 Z M935.633342,135 L937.485929,135 L937.485929,141 L935.633342,141 L935.633342,135 Z M928.222997,135 L930.075583,135 L930.075583,141 L928.222997,141 L928.222997,135 Z" id="Shape" fill="#000000" fill-rule="nonzero"></path>
            <g id="Group-3" transform="translate(969.000000, 31.000000)">
                <polygon id="Path" fill="#50E3C2" points="9.56602299 0 11.4041812 0 11.4041812 6.41666667 9.56602299 6.41666667"></polygon>
                <polygon id="Path" fill="#BD10E0" points="9.56602299 10.0833333 11.4041812 10.0833333 11.4041812 16.5 9.56602299 16.5"></polygon>
                <polygon id="Path" fill="#31DAFF" points="4.9706275 0 6.8087857 0 6.8087857 6.41666667 4.9706275 6.41666667"></polygon>
                <polygon id="Path" fill="#50E3C2" points="4.9706275 10.0833333 6.8087857 10.0833333 6.8087857 16.5 4.9706275 16.5"></polygon>
                <polygon id="Path" fill="#BD10E0" points="0.375232017 0 2.21339021 0 2.21339021 6.41666667 0.375232017 6.41666667"></polygon>
                <polygon id="Path" fill="#31DAFF" points="0.375232017 10.0833333 2.21339021 10.0833333 2.21339021 16.5 0.375232017 16.5"></polygon>
            </g>
            <path d="M935.448084,123 L937.254355,123 L937.254355,129 L935.448084,129 L935.448084,123 Z M928.222997,123 L930.029268,123 L930.029268,129 L928.222997,129 L928.222997,123 Z" id="Shape" fill="#D6D6D6" fill-rule="nonzero"></path>
            <path d="M935.448084,122.7 L937.254355,122.7 L937.254355,129 L935.448084,129 L935.448084,122.7 Z M928.222997,122.7 L930.029268,122.7 L930.029268,129 L928.222997,129 L928.222997,122.7 Z M928.222997,111 L928.222997,117.3 L930.029268,117.3 L930.029268,111.9 L929.126132,111 L928.222997,111 Z" id="Shape" fill="#000000" fill-rule="nonzero"></path>
            <path d="M942.472474,111 L944.278746,111 L944.278746,117.3 L942.472474,117.3 L942.472474,111 Z M935.247387,111 L937.053659,111 L937.053659,117.3 L935.247387,117.3 L935.247387,111 Z M944.278746,129 L942.472474,127.2 L942.472474,122.7 L944.278746,122.7 L944.278746,129 Z" id="Shape" fill="#D6D6D6" fill-rule="nonzero"></path>
            <polygon id="Shape" fill="#000000" fill-rule="nonzero" points="959.33101 142 957.324042 142 957.324042 140"></polygon>
            <polygon id="Shape" fill="#000000" fill-rule="nonzero" points="556.933798 136 595.066202 136 595.066202 181 556.933798 181"></polygon>
            <polygon id="Shape" fill="#FFFFFF" fill-rule="nonzero" points="1232.27875 149 1208.19512 149 1232.27875 173"></polygon>
            <polygon id="Shape" fill="#000000" fill-rule="nonzero" points="1232.27875 149 1208.19512 149 1220.23693 137"></polygon>
            <path d="M1226.45854,153 L1228.26481,153 L1228.26481,159 L1226.45854,159 L1226.45854,153 Z M1219.23345,153 L1221.03972,153 L1221.03972,159 L1219.23345,159 L1219.23345,153 Z" id="Shape" fill="#D6D6D6" fill-rule="nonzero"></path>
            <path d="M1194.14286,182 C1199.87966,182 1206.72681,179.608 1210.79809,175.56 C1215.73281,170.751217 1222.39501,168.101574 1229.30391,168.2 L1247.80972,168.2 C1251.96103,168.109771 1255.92566,166.467288 1258.91321,163.6 C1260.76379,161.76 1262.98449,159.736 1265.39024,159 L1265.39024,182 L1194.14286,182 Z" id="Shape" fill="#F6F9FC" fill-rule="nonzero"></path>
            <polygon id="Shape" fill="#000000" fill-rule="nonzero" points="944.278746 130 942.271777 130 942.271777 125 944.278746 127"></polygon>
            <path d="M663.706977,171 L654.487975,171 C652.714266,170.979581 651.281255,169.511528 651.261324,167.694447 C651.281255,165.877365 652.714266,164.409312 654.487975,164.388893 L655.502065,164.388893 C656.330797,164.377773 657.123373,164.039457 657.714626,163.444449 C658.305878,162.849442 659.098455,162.511126 659.927186,162.500005 L663.706977,162.500005 C664.802355,162.494985 665.854814,162.935953 666.63282,163.7259 C667.410827,164.515846 667.850649,165.590062 667.855528,166.712225 C667.860429,167.834388 667.429987,168.912584 666.658896,169.709615 C665.887805,170.506647 664.839231,170.957224 663.743853,170.962222 L663.706977,171 Z M783.093057,161.08334 C783.112988,159.266258 784.545999,157.798205 786.319708,157.777786 C787.810746,157.781637 789.240153,157.168648 790.283879,156.077787 L790.468259,155.888899 C791.636698,154.677334 793.230885,153.996846 794.89338,154.000011 L801.992012,154.000011 C804.781914,154.025646 807.03744,156.336327 807.062463,159.194452 C807.03744,162.052577 804.781914,164.363258 801.992012,164.388893 L786.319708,164.388893 C784.545999,164.368475 783.112988,162.900422 783.093057,161.08334 Z M864.681227,171 L875.28308,171 C876.810534,171 878.04878,169.731474 878.04878,168.166668 C878.04878,166.601863 876.810534,165.333337 875.28308,165.333337 L874.45337,165.333337 C873.203617,165.350772 872.002448,164.838046 871.134529,163.916671 C870.25688,163.010005 869.062097,162.500005 867.815688,162.500005 L864.681227,162.500005 C862.440961,162.500005 860.624866,164.36051 860.624866,166.655558 L860.624866,166.750003 C860.585016,167.837294 860.968789,168.896203 861.691619,169.693398 C862.414449,170.490594 863.417018,170.960653 864.478409,171 L864.681227,171 Z" id="Shape" fill="#000000" fill-rule="nonzero"></path>
            <polygon id="Shape" fill="#D6D6D6" fill-rule="nonzero" points="929.226481 112 928.222997 111 929.226481 111"></polygon>
            <path d="M1014.52265,46 L992.628445,46.0001135 C987.806452,45.9830339 983.175219,47.895024 979.75358,51.3154615 C976.33194,54.735899 974.400182,59.3845948 974.383275,64.2388736 L974.383275,181 L1014.52265,181 L1014.52265,46 Z" id="Shape" fill="#FFFFFF" fill-rule="nonzero"></path>
            <path d="M989.43554,53 L991.26799,53 L991.26799,105.114286 L989.43554,105.114286 L989.43554,53 Z M995.849114,53 L997.681563,53 L997.681563,105.114286 L995.849114,105.114286 L995.849114,53 Z M1004.09514,110.6 L1002.26269,108.771429 L1002.26269,53 L1004.09514,53 L1004.09514,110.6 Z M1010.50871,117 L1008.67626,115.171429 L1008.67626,53 L1010.50871,53 L1010.50871,117 Z" id="Shape" fill="#D6D6D6" fill-rule="nonzero"></path>
            <polygon id="Shape" fill="#D6D6D6" fill-rule="nonzero" points="1037.13688 140.591837 1037.13688 46 1014.98855 46 1014.98855 120.387755 1000.223 105.693878 974.383275 105.693878 974.383275 181 1077.74216 181"></polygon>
            <path d="M1004.1229,138.493671 L1002.29838,138.493671 L1002.29838,108 L1004.1229,109.848101 L1004.1229,138.493671 Z M1010.50871,138.493671 L1008.68419,138.493671 L1008.68419,114.468354 L1010.50871,116.316456 L1010.50871,138.493671 Z M995.000317,110.772152 L996.824834,110.772152 L996.824834,117.240506 L995.000317,117.240506 L995.000317,110.772152 Z M987.702249,110.772152 L989.526766,110.772152 L989.526766,117.240506 L987.702249,117.240506 L987.702249,110.772152 Z M980.404181,110.772152 L982.228698,110.772152 L982.228698,117.240506 L980.404181,117.240506 L980.404181,110.772152 Z M995.000317,122.78481 L996.824834,122.78481 L996.824834,129.253165 L995.000317,129.253165 L995.000317,122.78481 Z M987.702249,122.78481 L989.526766,122.78481 L989.526766,129.253165 L987.702249,129.253165 L987.702249,122.78481 Z M980.404181,122.78481 L982.228698,122.78481 L982.228698,129.253165 L980.404181,129.253165 L980.404181,122.78481 Z M995.000317,134.797468 L996.824834,134.797468 L996.824834,141.265823 L995.000317,141.265823 L995.000317,134.797468 Z M987.702249,134.797468 L989.526766,134.797468 L989.526766,141.265823 L987.702249,141.265823 L987.702249,134.797468 Z M980.404181,134.797468 L982.228698,134.797468 L982.228698,141.265823 L980.404181,141.265823 L980.404181,134.797468 Z M998.649351,164.367089 L998.649351,166.21519 C998.532454,167.39395 997.978173,168.483816 997.098511,169.264557 L995.273994,171.112658 L995.000317,171.389873 L995.000317,164.367089 L993.1758,164.367089 L993.1758,181 L995.000317,181 L995.000317,176.379747 C995.086884,174.921906 995.630147,173.53001 996.551156,172.406329 L998.375673,170.558228 C999.603034,169.439719 1000.35503,167.883177 1000.47387,166.21519 L1000.47387,164.367089 L998.649351,164.367089 Z" id="Shape" fill="#000000" fill-rule="nonzero"></path>
            <path d="M984.418118,160.818154 C984.448455,159.088082 985.891499,157.70703 987.647723,157.727292 L988.755016,157.727292 C989.607499,157.696009 990.422663,157.374773 991.061877,156.818216 L993.091914,154.909154 C993.719639,154.334479 994.541929,154.010435 995.398774,154.000077 L1003.33437,154.000077 C1006.15869,153.984871 1008.46629,156.217699 1008.50174,159 C1008.46629,161.782301 1006.15869,164.015129 1003.33437,163.999923 L987.739998,163.999923 C985.946677,163.986453 984.482292,162.583832 984.418118,160.818154 Z" id="Shape" fill="#FFFFFF" fill-rule="nonzero"></path>
            <polygon id="Shape" fill="#000000" fill-rule="nonzero" points="1020.54355 171 1022.55052 171 1022.55052 181 1020.54355 181"></polygon>
            <path d="M1016.48926,171 L1026.86754,171 C1028.36278,171 1029.57491,169.806093 1029.57491,168.333333 C1029.57491,166.860574 1028.36278,165.666667 1026.86754,165.666667 L1026.05532,165.666667 C1024.83193,165.683076 1023.65609,165.20051 1022.80647,164.333333 C1021.94676,163.480834 1020.77754,163.000985 1019.55762,163 L1016.48926,163 C1015.43613,163 1014.42614,163.412062 1013.68147,164.145538 C1012.93679,164.879014 1012.51844,165.87382 1012.51844,166.911111 L1012.51844,167 C1012.47943,168.023334 1012.85511,169.019955 1013.5627,169.770256 C1014.27028,170.520558 1015.25171,170.962968 1016.29072,171 L1016.48926,171 Z" id="Shape" fill="#FFFFFF" fill-rule="nonzero"></path>
            <path d="M1020.54355,53 L1022.32753,53 L1022.32753,138 L1020.54355,138 L1020.54355,53 Z M1026.78746,53 L1028.57143,53 L1028.57143,138 L1026.78746,138 L1026.78746,53 Z" id="Shape" fill="#000000" fill-rule="nonzero"></path>
        </g>
    </g>
</svg>