<svg width="19px" height="15px" viewBox="0 0 19 15" version="1.1" 
    xmlns="http://www.w3.org/2000/svg" 
    xmlns:xlink="http://www.w3.org/1999/xlink">
    <g id="Profile-V2" stroke="none" stroke-width="1" fill="none" fill-rule="evenodd">
        <g id="DJ-profile" transform="translate(-563.000000, -1093.000000)" fill="#50E3C2" fill-rule="nonzero">
            <g id="Group-11" transform="translate(562.000000, 1093.000000)">
                <path d="M15.33,14.368 C12.81,14.368 11.214,12.436 11.214,9.706 C11.214,5.842 14.238,2.188 19.152,0.886 L19.404,1.39 C15.918,3.196 14.406,6.01 14.238,7.48 L14.406,7.564 C14.826,7.396 15.246,7.312 15.708,7.312 C17.22,7.312 18.858,8.53 18.858,10.714 C18.858,12.646 17.43,14.368 15.33,14.368 Z M5.964,14.368 C3.444,14.368 1.848,12.436 1.848,9.706 C1.848,5.842 4.872,2.188 9.786,0.886 L10.038,1.39 C6.552,3.196 5.04,6.01 4.872,7.48 L5.04,7.564 C5.46,7.396 5.88,7.312 6.342,7.312 C7.854,7.312 9.492,8.53 9.492,10.714 C9.492,12.646 8.064,14.368 5.964,14.368 Z" id="“"></path>
            </g>
        </g>
    </g>
</svg>