<?xml version="1.0" encoding="UTF-8"?>
<svg width="16px" height="13px" viewBox="0 0 16 13" version="1.1" xmlns="http://www.w3.org/2000/svg" xmlns:xlink="http://www.w3.org/1999/xlink">
    <!-- Generator: Sketch 41.1 (35376) - http://www.bohemiancoding.com/sketch -->
    <title>Combined Shape</title>
    <desc>Created with Sketch.</desc>
    <defs></defs>
    <g id="HomePage" stroke="none" stroke-width="1" fill="none" fill-rule="evenodd">
        <g id="Terms-and-conditions-and-faqs" transform="translate(-248.000000, -162.000000)" fill="#BBBBBB">
            <g id="Action-buttons" transform="translate(224.000000, 110.000000)">
                <g id="Becom-DJ-button-Copy" transform="translate(0.000000, 42.000000)">
                    <g id="Group-2" transform="translate(24.406780, 7.000000)">
                        <g id="icon-references" transform="translate(0.000000, 3.000000)">
                            <g id="Group">
                                <path d="M0.5790104,11.0214726 L0,10.719 L0,3.069 C0,2.517 0.361220339,2.069 0.813559322,2.069 L0.846101695,2.069 C0.922576271,1.682 1.16583051,0.889 1.88583051,0.769 C2.52366102,0.663 3.56989831,0.452 4.91227119,0.577 C5.81532203,0.66 6.74766102,1.118 7.26345763,1.41 L7.26183051,1.409 C7.74508475,1.126 8.75308475,0.601 9.72528814,0.511 C11.0692881,0.386 12.1155254,0.597 12.7533559,0.704 C13.4733559,0.824 13.7166102,1.617 13.7922712,2.004 L13.8248136,2.004 C14.2779661,2.004 14.6383729,2.452 14.6383729,3.002 L14.6383729,10.482 L13.9151556,10.9362558 L14.3170169,11.547 C14.0340781,11.5309701 13.5687637,11.5076541 13.0316554,11.4911859 L13.0112542,11.504 L13.0112542,11.4905648 C12.0105076,11.4603091 10.767004,11.454284 9.98888136,11.563 C9.05979661,11.693 8.12094915,12.186 7.55471186,12.533 L7.02101695,12.533 C6.45477966,12.186 5.5159322,11.693 4.5860339,11.563 L4.5860339,11.566 C3.82444826,11.4595224 2.61644846,11.4631096 1.62711864,11.4914729 L1.62711864,11.569 L1.48680584,11.4957012 C0.974355546,11.5118856 0.532258421,11.5338842 0.259525424,11.549 L0.5790104,11.0214726 L0.5790104,11.0214726 Z M12.3514576,1.979 C12.5987797,2.023 12.7118644,2.192 12.7118644,2.622 L12.7118644,8.978 C12.7118644,8.978 10.2614237,8.84 9.31362712,9.045 C8.36583051,9.251 8.08677966,9.955 8.08677966,10.045 L8.08677966,3.045 C8.08677966,2.69 8.08677966,2.329 9.04515254,2.045 C9.97749153,1.769 12.1041356,1.931 12.3514576,1.977 L12.3514576,1.979 Z M5.57938983,2.096 C4.64867797,1.82 2.52284746,2.026 2.27633898,2.07 C2.02738983,2.116 1.91430508,2.285 1.91430508,2.715 L1.91430508,9.07 C1.91430508,9.07 4.36311864,8.89 5.31172881,9.096 C6.25871186,9.301 6.53776271,10.004 6.53776271,10.096 L6.53776271,3.096 C6.53776271,2.74 6.53776271,2.379 5.57938983,2.096 L5.57938983,2.096 Z" id="Combined-Shape"></path>
                            </g>
                        </g>
                    </g>
                </g>
            </g>
        </g>
    </g>
</svg>