<?xml version="1.0" encoding="UTF-8"?>
<svg width="252px" height="116px" viewBox="0 0 252 116" version="1.1" xmlns="http://www.w3.org/2000/svg" xmlns:xlink="http://www.w3.org/1999/xlink">
    <!-- Generator: Sketch 41.2 (35397) - http://www.bohemiancoding.com/sketch -->
    <title>cueup</title>
    <desc>Created with Sketch.</desc>
    <defs></defs>
    <g id="Page-1" stroke="none" stroke-width="1" fill="none" fill-rule="evenodd">
        <g id="logo" transform="translate(-1.000000, 0.000000)" fill="#000000">
            <path d="M22.4895658,115.384711 C13.1854248,115.384711 6.93605029,112.475822 3.74125487,106.657956 C0.546459457,100.840089 0.126097945,93.1762846 2.48015772,83.6663111 L15.4274218,31.8092444 C17.7814816,22.299271 22.0411449,14.6354661 28.2065395,8.8176 C34.3719342,2.99973387 42.1065861,0.0908444444 51.4107271,0.0908444444 C62.1721433,0.0908444444 68.757807,3.47522542 71.1679157,10.2440889 C73.5780245,17.0129524 72.877422,26.8863943 69.0660871,39.8647111 L56.6232619,39.8647111 C57.7442428,35.6131937 58.5008935,32.1728725 58.8932368,29.5436444 C59.2855802,26.9144164 59.3976765,24.1174074 59.2295294,21.1525333 C59.0613823,18.1876593 58.0805388,15.9780221 56.2869694,14.5235556 C54.4934,13.069089 51.8591346,12.3418667 48.3840939,12.3418667 C43.1154838,12.3418667 38.7437243,14.1599226 35.2686836,17.7960889 C31.7936429,21.4322552 29.327522,26.1032603 27.870247,31.8092444 L14.9229829,83.6663111 C13.5778059,89.3722952 13.6899023,94.0712705 15.2592755,97.7633778 C16.8286487,101.455485 20.247589,103.301511 25.516199,103.301511 C31.6815936,103.301511 36.3616184,100.952024 39.5564139,96.2529778 C42.7512093,91.553932 45.4695471,84.6732898 47.7115088,75.6108444 L60.154334,75.6108444 C58.921255,80.4217721 57.7442428,84.5333756 56.6232619,87.9457778 C55.5022811,91.3581799 53.9329313,94.9103816 51.9151659,98.6024889 C49.8974005,102.294596 47.6274482,105.287396 45.1052413,107.580978 C42.5830344,109.87456 39.416311,111.748556 35.6049761,113.203022 C31.7936413,114.657489 27.4218815,115.384711 22.4895658,115.384711 Z M79.3650472,115.132978 C72.6391621,115.132978 67.9941674,113.119131 65.4299237,109.091378 C62.86568,105.063624 62.4243004,99.6514119 64.1057717,92.8545778 L79.869486,29.4177778 L89.2016049,29.4177778 L73.4378906,92.2252444 C72.4290079,96.3369093 72.5971523,99.6513652 73.9423294,102.168711 C75.2875066,104.686057 77.8517117,105.944711 81.635022,105.944711 C85.5024061,105.944711 88.7391895,104.686057 91.3454701,102.168711 C93.9517507,99.6513652 95.7593051,96.3369093 96.7681878,92.2252444 L112.531902,29.4177778 L121.864021,29.4177778 L105.974197,92.8545778 C104.292726,99.6514119 101.140014,105.063624 96.5159684,109.091378 C91.8919224,113.119131 86.1750059,115.132978 79.3650472,115.132978 Z M160.831923,38.6060444 L135.862199,38.6060444 L128.547836,67.5553778 L145.194318,67.5553778 L142.924343,76.7436444 L126.277861,76.7436444 L119.215717,105.189511 L144.185441,105.189511 L141.915466,114.377778 L107.991952,114.377778 L129.052275,29.5436444 L163.101898,29.5436444 L160.831923,38.6060444 Z M168.902945,115.132978 C162.17706,115.132978 157.532065,113.119131 154.967821,109.091378 C152.403577,105.063624 151.962198,99.6514119 153.643669,92.8545778 L169.407384,29.4177778 L178.739502,29.4177778 L162.975788,92.2252444 C161.966905,96.3369093 162.13505,99.6513652 163.480227,102.168711 C164.825404,104.686057 167.389609,105.944711 171.17292,105.944711 C175.040304,105.944711 178.277087,104.686057 180.883368,102.168711 C183.489648,99.6513652 185.297203,96.3369093 186.306085,92.2252444 L202.0698,29.4177778 L211.401919,29.4177778 L195.512095,92.8545778 C193.830623,99.6514119 190.677912,105.063624 186.053866,109.091378 C181.42982,113.119131 175.712903,115.132978 168.902945,115.132978 Z M216.067978,76.8695111 L206.735859,114.377778 L197.52985,114.377778 L218.716282,29.5436444 L235.741094,29.5436444 C243.055494,29.5436444 247.910669,31.6204237 250.306766,35.7740444 C252.702862,39.9276652 252.976097,45.6545413 251.126479,52.9548444 C249.781302,58.1573593 248.036802,62.4158057 245.892926,65.7303111 C243.74905,69.0448165 241.037718,71.4782144 237.758849,73.0305778 C234.47998,74.5829412 231.264214,75.6108418 228.111456,76.1143111 C224.958697,76.6177804 220.944245,76.8695111 216.067978,76.8695111 Z M225.526207,38.7319111 L218.337953,67.5553778 L224.391219,67.5553778 C233.639311,67.5553778 239.482336,62.6885821 241.92047,52.9548444 C244.274529,43.4728414 240.99571,38.7319111 232.083912,38.7319111 L225.526207,38.7319111 Z" id="cueup"></path>
        </g>
    </g>
</svg>