<?xml version="1.0" encoding="UTF-8"?>
<svg width="53px" height="67px" viewBox="0 0 53 67" version="1.1" xmlns="http://www.w3.org/2000/svg" xmlns:xlink="http://www.w3.org/1999/xlink">
    <!-- Generator: Sketch 41.1 (35376) - http://www.bohemiancoding.com/sketch -->
    <title>Combined Shape</title>
    <desc>Created with Sketch.</desc>
    <defs>
        <linearGradient x1="85.2597769%" y1="95.5745355%" x2="32.8990146%" y2="20.9585794%" id="linearGradient-1">
            <stop stop-color="#31FFF5" offset="0%"></stop>
            <stop stop-color="#31FFC5" offset="21.7952806%"></stop>
            <stop stop-color="#00D1FF" offset="94.4837209%"></stop>
            <stop stop-color="#31DAFF" offset="100%"></stop>
        </linearGradient>
    </defs>
    <g id="HomePage" stroke="none" stroke-width="1" fill="none" fill-rule="evenodd">
        <g id="Homepage" transform="translate(-785.000000, -1599.000000)" fill="url(#linearGradient-1)">
            <g id="Info-section" transform="translate(223.000000, 1560.000000)">
                <path d="M614.245667,70.6595378 L614.245667,75.6067201 L614.243844,75.6067201 L614.240777,87.3751929 C614.258454,87.6887923 614.260831,87.998658 614.245667,88.3019454 C613.782291,97.5694694 608.874036,98.8821306 603.819702,98.8821306 C598.765369,98.8821306 595.478931,96.1749125 595.478931,91.1205792 C595.478931,86.0662458 598.954252,84.6333123 604.398923,83.3590277 C606.702155,82.8199735 610.654501,82.3339666 610.654501,79.9012408 L610.654501,72.1075884 L610.654501,69.9763786 L610.654501,56.7919647 C610.654501,56.0946174 610.220881,55.5772422 609.612585,55.4573232 L581.522151,60.7078715 C581.133773,61.0731456 580.88258,61.5896731 580.88258,62.1209053 L580.88258,92.9357074 C580.88258,93.1933377 580.88258,92.1336462 580.88258,95.0592769 C580.88258,103.060262 575.395105,105.71693 570.340772,105.71693 C565.286438,105.71693 562,103.009711 562,97.9553782 C562,92.9010449 565.475322,91.4681113 570.919992,90.1938268 C572.989913,89.7093771 576.39177,89.2677721 577.059727,87.4174767 L577.059727,48.7987995 C577.059727,47.1995061 578.331679,45.6494247 579.900551,45.3366278 L611.404843,39.0553982 C612.973787,38.742587 614.245667,39.786287 614.245667,41.3840462 L614.245667,70.6595378 Z" id="Combined-Shape"></path>
            </g>
        </g>
    </g>
</svg>