<?xml version="1.0" encoding="UTF-8"?>
<svg width="68px" height="68px" viewBox="0 0 68 68" version="1.1" xmlns="http://www.w3.org/2000/svg" xmlns:xlink="http://www.w3.org/1999/xlink">
    <title>Vinyl</title>
    <desc>Created with Sketch.</desc>
    <defs>
        <linearGradient x1="100%" y1="121.962842%" x2="-14.1681471%" y2="-27.025118%" id="linearGradient-1">
            <stop stop-color="#B031FF" offset="0%"></stop>
            <stop stop-color="#B031FF" offset="19.0439364%"></stop>
            <stop stop-color="#00D1FF" offset="92.6877392%"></stop>
            <stop stop-color="#31DAFF" offset="100%"></stop>
        </linearGradient>
    </defs>
    <g id="HomePage" stroke="none" stroke-width="1" fill="none" fill-rule="evenodd">
        <g id="Becom-dj" transform="translate(-788.000000, -184.000000)" fill="url(#linearGradient-1)">
            <g id="Info-section" transform="translate(229.000000, 142.000000)">
                <g id="Vinyl-icon" transform="translate(559.000000, 42.000000)">
                    <path d="M34,68 C52.7776815,68 68,52.7776815 68,34 C68,15.2223185 52.7776815,0 34,0 C15.2223185,0 0,15.2223185 0,34 C0,52.7776815 15.2223185,68 34,68 Z M34,45 C40.0751322,45 45,40.0751322 45,34 C45,27.9248678 40.0751322,23 34,23 C27.9248678,23 23,27.9248678 23,34 C23,40.0751322 27.9248678,45 34,45 Z M34,38 C36.209139,38 38,36.209139 38,34 C38,31.790861 36.209139,30 34,30 C31.790861,30 30,31.790861 30,34 C30,36.209139 31.790861,38 34,38 Z M34,36 C35.1045695,36 36,35.1045695 36,34 C36,32.8954305 35.1045695,32 34,32 C32.8954305,32 32,32.8954305 32,34 C32,35.1045695 32.8954305,36 34,36 Z M23.4246103,42.5914863 C21.5179272,40.2473833 20.375,37.2571641 20.375,34 L4,34 C4,41.4706761 6.73070224,48.3035625 11.2484225,53.5549751 L23.4246103,42.5914863 L23.4246103,42.5914863 Z M55.714317,13.2999604 C60.84801,18.6835955 64,25.9737044 64,34 L47.625,34 C47.625,30.1870021 46.0587091,26.7398309 43.5344251,24.2667844 L55.714317,13.2999604 L55.714317,13.2999604 Z" id="Vinyl"></path>
                </g>
            </g>
        </g>
    </g>
</svg>
